<svg width="1380" height="396" viewBox="0 0 1380 396" fill="none" xmlns="http://www.w3.org/2000/svg">
<g clip-path="url(#clip0_4_4)">
<path d="M252.369 98.1803L248.542 103.548V199.89" stroke="black" stroke-width="1.832" stroke-miterlimit="10"/>
<path d="M285.063 117.315L281.236 122.683V219.025" stroke="black" stroke-width="1.832" stroke-miterlimit="10"/>
<path d="M310.627 131.07L306.801 136.438V232.779" stroke="black" stroke-width="1.832" stroke-miterlimit="10"/>
<path d="M339.226 259.608L133.068 278.226L23.8576 259.608H0.000244141V321.452H1379.96V259.608H339.226Z" fill="#F80302"/>
<mask id="mask0_4_4" style="mask-type:luminance" maskUnits="userSpaceOnUse" x="0" y="0" width="1380" height="396">
<path d="M0 6.42877e-05H1379.96V395.901H0V6.42877e-05Z" fill="white"/>
</mask>
<g mask="url(#mask0_4_4)">
<path d="M539.632 166.701C524.353 168.673 523.368 170.151 523.368 184.692V205.392C523.368 214.017 523.613 222.149 524.845 228.804C509.566 232.255 489.604 237.676 468.904 237.676C412.962 237.676 378.953 202.928 378.953 153.393C378.953 101.395 421.341 70.3428 470.629 70.3428C495.766 70.3428 514.249 75.2721 521.888 76.5055C522.381 85.6228 523.613 100.656 525.585 116.181L518.192 117.66C512.277 96.7122 505.13 87.8402 489.604 82.6655C483.937 80.6948 473.832 79.4615 466.686 79.4615C428.981 79.4615 404.584 105.339 404.584 150.436C404.584 189.62 424.792 228.557 472.601 228.557C480.98 228.557 488.618 226.833 493.548 224.368C498.722 221.411 501.928 218.7 501.928 208.596V188.388C501.928 170.397 499.956 168.427 476.297 166.701V159.555H539.632V166.701Z" fill="white"/>
<path d="M686.759 194.796C685.281 201.203 678.626 226.587 676.162 233.98H556.393V227.079C579.311 225.353 581.037 223.136 581.037 202.928V105.584C581.037 83.6519 578.326 82.4185 559.842 80.6945V73.7945H635.253C658.418 73.7945 668.03 73.5465 670.987 73.3012C671.233 79.4625 672.219 97.9452 673.205 111.007L665.811 112.239C663.594 103.86 661.129 98.6839 658.418 93.5092C654.475 85.3772 648.807 83.6519 634.021 83.6519H610.61C602.97 83.6519 602.477 84.3905 602.477 91.5372V146H629.831C648.314 146 649.547 142.304 652.505 125.545H660.143V176.313H652.505C649.299 158.569 647.329 156.104 629.585 156.104H602.477V205.147C602.477 222.397 607.898 223.876 620.221 224.123H643.139C658.173 224.123 660.637 221.904 666.059 215.496C670.741 210.321 675.915 200.217 679.366 192.824L686.759 194.796Z" fill="white"/>
<path d="M874.301 80.6942C858.528 82.4182 853.353 84.8836 852.613 96.2196C852.368 104.106 851.874 114.456 851.874 137.376V236.197H842.509L737.034 107.309V168.92C737.034 191.1 737.773 202.189 738.266 209.336C738.758 221.904 744.92 225.601 762.662 227.08V233.98H702.778V227.08C718.057 225.846 723.972 222.15 724.958 210.074C725.697 202.189 726.19 191.1 726.19 168.673V105.832C726.19 98.9302 725.697 94.9876 721.262 89.5662C716.58 83.4049 711.404 81.9262 699.329 80.6942V73.7942H736.294L840.784 197.753V137.376C840.784 114.456 840.292 103.86 839.552 96.4662C838.813 85.3769 833.145 81.9262 813.43 80.6942V73.7942H874.301V80.6942Z" fill="white"/>
<path d="M1021.92 194.796C1020.44 201.203 1013.79 226.587 1011.32 233.98H891.553V227.079C914.471 225.353 916.197 223.136 916.197 202.928V105.584C916.197 83.6519 913.486 82.4185 895.002 80.6945V73.7945H970.413C993.578 73.7945 1003.19 73.5465 1006.15 73.3012C1006.39 79.4625 1007.38 97.9452 1008.36 111.007L1000.97 112.239C998.754 103.86 996.289 98.6839 993.578 93.5092C989.635 85.3772 983.967 83.6519 969.181 83.6519H945.77C938.129 83.6519 937.637 84.3905 937.637 91.5372V146H964.991C983.474 146 984.707 142.304 987.665 125.545H995.303V176.313H987.665C984.459 158.569 982.489 156.104 964.745 156.104H937.637V205.147C937.637 222.397 943.058 223.876 955.381 224.123H978.299C993.333 224.123 995.797 221.904 1001.22 215.496C1005.9 210.321 1011.08 200.217 1014.53 192.824L1021.92 194.796Z" fill="white"/>
<path d="M1124.69 111.252C1120.5 94.9869 1113.6 78.9696 1090.43 78.9696C1071.21 78.9696 1064.55 93.0163 1064.55 105.831C1064.55 122.835 1075.4 131.46 1095.85 142.058C1125.43 157.336 1138.24 168.672 1138.24 192.086C1138.24 217.96 1115.81 237.676 1084.02 237.676C1069.24 237.676 1056.42 233.487 1046.32 229.543C1044.35 222.643 1041.39 205.886 1039.66 192.578L1047.3 190.606C1052.23 207.118 1063.08 228.558 1088.71 228.558C1106.45 228.558 1117.29 216.236 1117.29 200.218C1117.29 181.242 1107.19 173.602 1085.5 161.772C1059.63 147.726 1045.09 135.896 1045.09 112.978C1045.09 91.0443 1063.32 70.3429 1095.85 70.3429C1109.65 70.3429 1123.21 74.0403 1128.38 75.0256C1129.37 83.8976 1130.35 93.7549 1132.32 109.774L1124.69 111.252Z" fill="white"/>
<path d="M1159.44 233.979V227.079C1179.64 224.861 1181.62 223.875 1181.62 202.927V105.091C1181.62 83.8968 1179.64 82.9115 1159.44 80.6942V73.7942H1225.48V80.6942C1205.03 82.9115 1203.06 83.8968 1203.06 105.091V202.927C1203.06 224.122 1205.03 224.861 1225.48 227.079V233.979H1159.44Z" fill="white"/>
<path d="M1331.45 111.252C1327.26 94.9869 1320.36 78.9696 1297.2 78.9696C1277.97 78.9696 1271.32 93.0163 1271.32 105.831C1271.32 122.835 1282.16 131.46 1302.62 142.058C1332.19 157.336 1345.01 168.672 1345.01 192.086C1345.01 217.96 1322.58 237.676 1290.79 237.676C1276 237.676 1263.19 233.487 1253.09 229.543C1251.11 222.643 1248.15 205.886 1246.43 192.578L1254.07 190.606C1259 207.118 1269.84 228.558 1295.47 228.558C1313.21 228.558 1324.06 216.236 1324.06 200.218C1324.06 181.242 1313.95 173.602 1292.27 161.772C1266.39 147.726 1251.85 135.896 1251.85 112.978C1251.85 91.0443 1270.09 70.3429 1302.62 70.3429C1316.42 70.3429 1329.97 74.0403 1335.15 75.0256C1336.13 83.8976 1337.12 93.7549 1339.09 109.774L1331.45 111.252Z" fill="white"/>
<path d="M413.607 292.508C413.359 287.858 413.063 282.266 413.112 278.11H412.964C411.826 282.019 410.44 286.175 408.758 290.776L402.87 306.956H399.604L394.211 291.074C392.628 286.372 391.292 282.068 390.352 278.11H390.252C390.154 282.266 389.907 287.858 389.61 292.855L388.719 307.154H384.612L386.938 273.806H392.43L398.12 289.935C399.506 294.042 400.643 297.703 401.484 301.167H401.634C402.474 297.803 403.662 294.142 405.146 289.935L411.083 273.806H416.576L418.654 307.154H414.448L413.607 292.508Z" fill="white"/>
<path d="M457.093 293.3L453.827 283.701C453.085 281.524 452.59 279.545 452.095 277.614H451.997C451.502 279.594 450.957 281.622 450.314 283.652L447.049 293.3H457.093ZM446.158 296.664L442.694 307.154H438.241L449.571 273.805H454.767L466.147 307.154H461.546L457.983 296.664H446.158Z" fill="white"/>
<path d="M491.327 289.44H495.731C500.332 289.44 503.251 286.916 503.251 283.107C503.251 278.802 500.134 276.922 495.582 276.872C493.504 276.872 492.02 277.071 491.327 277.268V289.44ZM487.022 274.25C489.199 273.804 492.316 273.558 495.286 273.558C499.887 273.558 502.855 274.399 504.934 276.279C506.616 277.763 507.556 280.039 507.556 282.612C507.556 287.016 504.786 289.935 501.272 291.123V291.271C503.846 292.162 505.379 294.536 506.171 298C507.259 302.651 508.051 305.867 508.744 307.154H504.291C503.746 306.214 503.004 303.344 502.064 299.188C501.075 294.586 499.294 292.855 495.384 292.706H491.327V307.154H487.022V274.25Z" fill="white"/>
<path d="M529.619 273.805H533.924V289.886H534.072C534.963 288.6 535.853 287.412 536.695 286.324L546.887 273.805H552.231L540.157 287.956L553.171 307.154H548.075L537.091 290.777L533.924 294.438V307.154H529.619V273.805Z" fill="white"/>
<path d="M589.683 291.519H576.719V303.543H591.167V307.155H572.415V273.805H590.425V277.417H576.719V287.956H589.683V291.519Z" fill="white"/>
<path d="M619.858 277.466H609.716V273.805H634.405V277.466H624.213V307.154H619.858V277.466Z" fill="white"/>
<path d="M658.399 307.153H654.093V273.804H658.399V307.153Z" fill="white"/>
<path d="M681.897 307.154V273.805H686.597L697.285 290.678C699.759 294.586 701.689 298.099 703.272 301.514L703.371 301.463C702.976 297.011 702.876 292.954 702.876 287.758V273.805H706.933V307.154H702.58L691.991 290.233C689.665 286.521 687.439 282.711 685.757 279.099L685.608 279.149C685.856 283.354 685.955 287.362 685.955 292.903V307.154H681.897Z" fill="white"/>
<path d="M755.814 305.67C753.885 306.363 750.074 307.5 745.571 307.5C740.525 307.5 736.369 306.214 733.103 303.096C730.233 300.326 728.453 295.872 728.453 290.678C728.502 280.732 735.33 273.459 746.511 273.459C750.371 273.459 753.39 274.3 754.825 274.992L753.786 278.506C752.005 277.714 749.778 277.071 746.413 277.071C738.298 277.071 733.005 282.118 733.005 290.479C733.005 298.94 738.101 303.938 745.869 303.938C748.689 303.938 750.619 303.542 751.609 303.047V293.102H744.83V289.639H755.814V305.67Z" fill="white"/>
<path d="M810.331 281.078C810.331 283.453 811.419 285.284 812.855 287.065C816.219 285.136 818.396 283.354 818.396 280.534C818.396 278.505 817.258 276.229 814.536 276.229C811.766 276.229 810.331 278.505 810.331 281.078ZM820.474 301.414C818.495 299.237 814.784 295.18 811.074 290.925C809.292 292.062 806.768 294.19 806.768 297.704C806.768 301.513 809.588 304.433 813.596 304.433C816.467 304.433 818.891 303.146 820.474 301.414ZM825.719 307.154C824.779 306.214 823.888 305.273 822.602 303.888C819.732 306.56 816.516 307.698 812.855 307.698C806.372 307.698 802.612 303.344 802.612 298.346C802.612 293.794 805.334 290.677 809.143 288.6V288.45C807.412 286.273 806.372 283.849 806.372 281.474C806.372 277.417 809.292 273.261 814.834 273.261C818.99 273.261 822.206 276.032 822.206 280.336C822.206 283.849 820.178 286.62 814.883 289.242V289.39C817.703 292.657 820.87 296.318 822.998 298.693C824.531 296.368 825.571 293.152 826.214 288.945H830.172C829.282 294.19 827.847 298.346 825.372 301.266C827.154 303.146 828.886 305.026 830.864 307.154H825.719Z" fill="white"/>
<path d="M881.524 303.74C882.612 303.937 884.196 303.988 885.878 303.988C895.081 303.988 900.078 298.841 900.078 289.836C900.128 281.969 895.674 276.972 886.57 276.972C884.344 276.972 882.662 277.169 881.524 277.417V303.74ZM877.218 274.251C879.841 273.855 882.958 273.557 886.373 273.557C892.557 273.557 896.961 274.992 899.881 277.713C902.849 280.435 904.581 284.295 904.581 289.688C904.581 295.131 902.898 299.584 899.781 302.652C896.664 305.768 891.518 307.451 885.037 307.451C881.969 307.451 879.396 307.303 877.218 307.055V274.251Z" fill="white"/>
<path d="M930.452 307.153H926.147V273.804H930.452V307.153Z" fill="white"/>
<path d="M953.358 301.909C955.288 303.097 958.109 304.087 961.077 304.087C965.481 304.087 968.053 301.761 968.053 298.396C968.053 295.279 966.273 293.497 961.77 291.767C956.328 289.836 952.962 287.016 952.962 282.316C952.962 277.12 957.268 273.261 963.749 273.261C967.164 273.261 969.637 274.052 971.121 274.893L969.934 278.407C968.845 277.813 966.618 276.824 963.601 276.824C959.049 276.824 957.317 279.545 957.317 281.821C957.317 284.937 959.345 286.472 963.946 288.253C969.588 290.431 972.457 293.152 972.457 298.049C972.457 303.196 968.648 307.649 960.78 307.649C957.564 307.649 954.052 306.709 952.27 305.521L953.358 301.909Z" fill="white"/>
<path d="M1000.66 277.466H990.513V273.805H1015.2V277.466H1005.01V307.154H1000.66V277.466Z" fill="white"/>
<path d="M1039.19 289.44H1043.6C1048.2 289.44 1051.12 286.916 1051.12 283.107C1051.12 278.802 1048 276.922 1043.45 276.872C1041.37 276.872 1039.89 277.071 1039.19 277.268V289.44ZM1034.89 274.25C1037.07 273.804 1040.18 273.558 1043.15 273.558C1047.75 273.558 1050.72 274.399 1052.8 276.279C1054.48 277.763 1055.42 280.039 1055.42 282.612C1055.42 287.016 1052.65 289.935 1049.14 291.123V291.271C1051.71 292.162 1053.25 294.536 1054.04 298C1055.13 302.651 1055.92 305.867 1056.61 307.154H1052.16C1051.61 306.214 1050.87 303.344 1049.93 299.188C1048.94 294.586 1047.16 292.855 1043.25 292.706H1039.19V307.154H1034.89V274.25Z" fill="white"/>
<path d="M1081.79 307.153H1077.49V273.804H1081.79V307.153Z" fill="white"/>
<path d="M1109.6 303.888C1110.44 304.036 1111.67 304.086 1113.21 304.086C1117.66 304.086 1121.77 302.454 1121.77 297.604C1121.77 293.052 1117.86 291.172 1113.16 291.172H1109.6V303.888ZM1109.6 287.907H1113.5C1118.06 287.907 1120.73 285.531 1120.73 282.315C1120.73 278.407 1117.76 276.872 1113.4 276.872C1111.43 276.872 1110.29 277.022 1109.6 277.17V287.907ZM1105.29 274.25C1107.17 273.855 1110.14 273.558 1113.16 273.558C1117.46 273.558 1120.23 274.3 1122.31 275.982C1124.04 277.268 1125.08 279.248 1125.08 281.87C1125.08 285.086 1122.96 287.907 1119.44 289.194V289.292C1122.61 290.083 1126.32 292.706 1126.32 297.654C1126.32 300.524 1125.18 302.7 1123.5 304.334C1121.17 306.462 1117.41 307.451 1111.97 307.451C1109 307.451 1106.73 307.252 1105.29 307.055V274.25Z" fill="white"/>
<path d="M1152.39 273.805V293.548C1152.39 301.018 1155.7 304.185 1160.16 304.185C1165.11 304.185 1168.27 300.92 1168.27 293.548V273.805H1172.63V293.25C1172.63 303.493 1167.23 307.698 1160.01 307.698C1153.18 307.698 1148.03 303.789 1148.03 293.448V273.805H1152.39Z" fill="white"/>
<path d="M1202.41 277.466H1192.27V273.805H1216.95V277.466H1206.76V307.154H1202.41V277.466Z" fill="white"/>
<path d="M1240.95 307.153H1236.64V273.804H1240.95V307.153Z" fill="white"/>
<path d="M1267.07 290.677C1267.07 297.803 1270.93 304.185 1277.71 304.185C1284.54 304.185 1288.39 297.901 1288.39 290.331C1288.39 283.701 1284.93 276.773 1277.76 276.773C1270.63 276.773 1267.07 283.355 1267.07 290.677ZM1292.95 290.133C1292.95 301.612 1285.97 307.699 1277.46 307.699C1268.65 307.699 1262.47 300.871 1262.47 290.776C1262.47 280.188 1269.05 273.26 1277.95 273.26C1287.06 273.26 1292.95 280.237 1292.95 290.133Z" fill="white"/>
<path d="M1314.51 307.154V273.805H1319.21L1329.9 290.678C1332.38 294.586 1334.31 298.099 1335.89 301.514L1335.99 301.463C1335.59 297.011 1335.49 292.954 1335.49 287.758V273.805H1339.55V307.154H1335.2L1324.61 290.233C1322.28 286.521 1320.06 282.711 1318.37 279.099L1318.23 279.149C1318.47 283.354 1318.57 287.362 1318.57 292.903V307.154H1314.51Z" fill="white"/>
<path d="M42.1617 362.501C41.8991 356.77 41.5697 349.853 41.6337 343.858H41.4364C39.9871 349.26 38.1431 355.254 36.1671 360.854L29.7111 380.09H23.4524L17.5231 361.117C15.8111 355.452 14.2297 349.392 13.0444 343.858H12.9124C12.7151 349.656 12.4511 356.704 12.1217 362.765L11.1337 380.617H3.55774L6.52307 336.217H17.1937L22.9911 354.069C24.5724 359.273 25.9564 364.544 27.0764 369.484H27.2737C28.4604 364.676 29.9737 359.208 31.6884 354.002L37.8137 336.217H48.3551L50.9231 380.617H43.0191L42.1617 362.501Z" fill="white"/>
<path d="M104.822 361.909L101.33 350.973C100.474 348.271 99.7485 345.242 99.0899 342.673H98.9592C98.2992 345.242 97.6405 348.338 96.8499 350.973L93.4245 361.909H104.822ZM92.1072 368.035L88.2872 380.618H79.9192L94.1499 336.217H104.493L118.919 380.618H110.225L106.205 368.035H92.1072Z" fill="white"/>
<path d="M152.723 343.002H140.075V336.216H173.606V343.002H160.826V380.618H152.723V343.002Z" fill="white"/>
<path d="M228.094 360.92H211.361V373.964H230.07V380.618H203.258V336.216H229.082V342.87H211.361V354.332H228.094V360.92Z" fill="white"/>
<path d="M269.672 356.44H274.48C279.948 356.44 283.373 353.542 283.373 349.128C283.373 344.252 279.948 342.014 274.679 342.014C272.109 342.014 270.463 342.211 269.672 342.408V356.44ZM261.635 336.808C264.664 336.282 269.209 335.887 273.888 335.887C280.277 335.887 284.625 336.94 287.589 339.444C290.028 341.487 291.412 344.582 291.412 348.338C291.412 354.068 287.525 357.956 283.373 359.471V359.668C286.536 360.855 288.447 363.951 289.567 368.232C290.949 373.766 292.136 378.904 293.057 380.618H284.692C284.033 379.3 282.979 375.676 281.727 370.143C280.476 364.346 278.367 362.5 273.756 362.37H269.672V380.618H261.635V336.808Z" fill="white"/>
<path d="M331.669 380.617H323.567V336.216H331.669V380.617Z" fill="white"/>
<path d="M387.012 361.909L383.52 350.973C382.664 348.271 381.939 345.242 381.28 342.673H381.149C380.489 345.242 379.831 348.338 379.04 350.973L375.615 361.909H387.012ZM374.297 368.035L370.477 380.618H362.109L376.34 336.217H386.683L401.109 380.618H392.415L388.395 368.035H374.297Z" fill="white"/>
<path d="M431.75 336.216H439.853V373.832H458.102V380.618H431.75V336.216Z" fill="white"/>
<path d="M513.512 360.92H496.779V373.964H515.488V380.618H488.676V336.216H514.5V342.87H496.779V354.332H513.512V360.92Z" fill="white"/>
<path d="M593.236 374.425C594.356 374.622 596.069 374.622 597.716 374.622C608.257 374.689 614.515 368.891 614.515 357.626C614.581 347.811 608.916 342.211 598.769 342.211C596.201 342.211 594.356 342.409 593.236 342.673V374.425ZM585.133 336.809C588.691 336.217 593.236 335.887 598.045 335.887C606.345 335.887 612.077 337.599 616.161 341.025C620.443 344.517 623.079 349.786 623.079 357.363C623.079 365.267 620.377 371.197 616.161 375.018C611.748 379.037 604.7 381.078 596.069 381.078C591.325 381.078 587.768 380.815 585.133 380.486V336.809Z" fill="white"/>
<path d="M679.413 360.92H662.68V373.964H681.389V380.618H654.577V336.216H680.401V342.87H662.68V354.332H679.413V360.92Z" fill="white"/>
<path d="M782.853 379.3C780.942 380.288 776.726 381.276 771.39 381.276C757.293 381.276 748.728 372.449 748.728 358.944C748.728 344.32 758.874 335.492 772.444 335.492C777.78 335.492 781.602 336.612 783.249 337.468L781.469 343.924C779.361 343.001 776.462 342.212 772.773 342.212C763.749 342.212 757.226 347.877 757.226 358.549C757.226 368.298 762.958 374.557 772.708 374.557C776.001 374.557 779.428 373.898 781.536 372.91L782.853 379.3Z" fill="white"/>
<path d="M818.766 358.614C818.766 367.64 823.311 374.821 831.085 374.821C838.923 374.821 843.338 367.574 843.338 358.285C843.338 349.92 839.187 342.013 831.085 342.013C823.047 342.013 818.766 349.457 818.766 358.614ZM851.902 357.956C851.902 372.844 842.877 381.342 830.623 381.342C818.107 381.342 810.201 371.79 810.201 358.746C810.201 345.11 818.766 335.492 831.282 335.492C844.259 335.492 851.902 345.308 851.902 357.956Z" fill="white"/>
<path d="M883.335 380.617V336.216H892.558L904.022 355.255C906.984 360.196 909.554 365.333 911.596 370.143H911.728C911.2 364.213 911.004 358.483 911.004 351.697V336.216H918.514V380.617H910.147L898.552 361.117C895.72 356.243 892.755 350.775 890.582 345.768L890.384 345.835C890.714 351.565 890.779 357.428 890.779 364.741V380.617H883.335Z" fill="white"/>
<path d="M952.12 371.79C954.756 373.305 958.708 374.623 962.859 374.623C968.063 374.623 970.961 372.185 970.961 368.562C970.961 365.202 968.721 363.226 963.056 361.183C955.744 358.549 951.067 354.662 951.067 348.271C951.067 341.025 957.127 335.491 966.745 335.491C971.555 335.491 975.112 336.546 977.417 337.731L975.441 344.253C973.86 343.397 970.763 342.145 966.613 342.145C961.476 342.145 959.236 344.911 959.236 347.482C959.236 350.906 961.805 352.487 967.733 354.793C975.441 357.693 979.196 361.579 979.196 367.969C979.196 375.083 973.795 381.277 962.331 381.277C957.653 381.277 952.779 379.958 950.341 378.51L952.12 371.79Z" fill="white"/>
<path d="M1019.46 343.002H1006.81V336.216H1040.34V343.002H1027.56V380.618H1019.46V343.002Z" fill="white"/>
<path d="M1078.03 356.44H1082.84C1088.3 356.44 1091.73 353.542 1091.73 349.128C1091.73 344.252 1088.3 342.014 1083.04 342.014C1080.47 342.014 1078.82 342.211 1078.03 342.408V356.44ZM1069.99 336.808C1073.02 336.282 1077.57 335.887 1082.24 335.887C1088.63 335.887 1092.98 336.94 1095.95 339.444C1098.38 341.487 1099.77 344.582 1099.77 348.338C1099.77 354.068 1095.88 357.956 1091.73 359.471V359.668C1094.89 360.855 1096.8 363.951 1097.92 368.232C1099.31 373.766 1100.49 378.904 1101.41 380.618H1093.05C1092.39 379.3 1091.34 375.676 1090.08 370.143C1088.83 364.346 1086.72 362.5 1082.11 362.37H1078.03V380.618H1069.99V336.808Z" fill="white"/>
<path d="M1139.7 336.216V362.106C1139.7 370.802 1143.32 374.82 1148.79 374.82C1154.65 374.82 1158.14 370.802 1158.14 362.106V336.216H1166.24V361.579C1166.24 375.282 1159.2 381.342 1148.52 381.342C1138.25 381.342 1131.59 375.611 1131.59 361.644V336.216H1139.7Z" fill="white"/>
<path d="M1231.8 379.3C1229.89 380.288 1225.68 381.276 1220.34 381.276C1206.24 381.276 1197.68 372.449 1197.68 358.944C1197.68 344.32 1207.82 335.492 1221.39 335.492C1226.73 335.492 1230.55 336.612 1232.2 337.468L1230.42 343.924C1228.31 343.001 1225.41 342.212 1221.72 342.212C1212.7 342.212 1206.18 347.877 1206.18 358.549C1206.18 368.298 1211.91 374.557 1221.66 374.557C1224.95 374.557 1228.38 373.898 1230.48 372.91L1231.8 379.3Z" fill="white"/>
<path d="M1270.81 392.41C1273.11 391.948 1275.42 390.631 1275.42 388.259C1275.42 386.678 1274.3 385.228 1273.31 384.306L1279.11 383.252C1280.43 384.175 1281.68 386.019 1281.68 388.259C1281.68 393.464 1277.07 395.703 1272.13 395.902L1270.81 392.41ZM1272.98 343.002H1260.34V336.216H1293.87V343.002H1281.09V380.618H1272.98V343.002Z" fill="white"/>
<path d="M1331.62 380.617H1323.52V336.216H1331.62V380.617Z" fill="white"/>
<path d="M1373.46 380.617H1365.36V336.216H1373.46V380.617Z" fill="white"/>
<path d="M338.31 197.054L329.37 193.892V200.938L338.31 203.534V197.054Z" fill="white"/>
<path d="M338.31 215.715L329.37 212.553V219.599L338.31 222.195V215.715Z" fill="white"/>
<path d="M338.31 160.343L329.37 155.474V164.227L338.31 168.438V160.343Z" fill="white"/>
<path d="M338.31 178.885L329.37 174.015V182.769L338.31 186.979V178.885Z" fill="white"/>
<path d="M329.37 226.687V220.133L133.784 172.622L46.765 192.362V209.899L133.784 186.649L329.37 230.309V226.687Z" fill="white"/>
<path d="M48.0938 101.223L21.3698 108.225V114.432L48.0938 108.167V101.223Z" fill="white"/>
<path d="M48.0938 125.619L21.3698 132.621V138.828L48.0938 132.563V125.619Z" fill="white"/>
<path d="M48.0938 151.19L21.3698 158.193V164.399L48.0938 158.134V151.19Z" fill="white"/>
<path d="M48.0938 177.141L21.3698 184.144V190.35L48.0938 184.085V177.141Z" fill="white"/>
<path d="M329.37 221.049C328.863 221.049 328.454 220.639 328.454 220.133V144.272C328.454 143.765 328.863 143.355 329.37 143.355C329.877 143.355 330.286 143.765 330.286 144.272V220.133C330.286 220.639 329.877 221.049 329.37 221.049Z" fill="white"/>
<path d="M85.1746 195.316C84.6733 195.316 84.264 194.913 84.2586 194.41L83.9426 167.032C83.936 166.526 84.3413 166.112 84.848 166.105H84.8586C85.36 166.105 85.768 166.509 85.7733 167.01L86.0906 194.389C86.096 194.896 85.692 195.31 85.1853 195.316H85.1746Z" fill="white"/>
<path d="M311.343 216.67C310.836 216.67 310.427 216.259 310.427 215.754V133.783C310.427 133.278 310.836 132.867 311.343 132.867C311.849 132.867 312.259 133.278 312.259 133.783V215.754C312.259 216.259 311.849 216.67 311.343 216.67Z" fill="white"/>
<path d="M285.777 210.46C285.271 210.46 284.861 210.05 284.861 209.544V118.912C284.861 118.406 285.271 117.996 285.777 117.996C286.284 117.996 286.693 118.406 286.693 118.912V209.544C286.693 210.05 286.284 210.46 285.777 210.46Z" fill="white"/>
<path d="M253.085 202.518C252.578 202.518 252.169 202.107 252.169 201.602V99.8928C252.169 99.3875 252.578 98.9768 253.085 98.9768C253.591 98.9768 254.001 99.3875 254.001 99.8928V201.602C254.001 202.107 253.591 202.518 253.085 202.518Z" fill="white"/>
<path d="M85.4181 126.915V135.548L132.155 115.74V106.952L85.4181 126.915ZM84.5021 137.847C84.3261 137.847 84.1488 137.796 83.9981 137.695C83.7408 137.525 83.5875 137.239 83.5875 136.931V126.309C83.5875 125.943 83.8061 125.612 84.1435 125.468L132.711 104.721C132.991 104.6 133.318 104.629 133.575 104.8C133.833 104.969 133.986 105.256 133.986 105.564V116.347C133.986 116.715 133.767 117.047 133.429 117.189L84.8608 137.775C84.7448 137.823 84.6235 137.847 84.5021 137.847Z" fill="white"/>
<path d="M85.6681 154.859L85.7228 161.274L132.155 148.407V138.231L85.6681 154.859ZM84.8175 163.39C84.6215 163.39 84.4268 163.327 84.2668 163.206C84.0388 163.034 83.9041 162.767 83.9028 162.482L83.8308 154.223C83.8268 153.834 84.0708 153.485 84.4375 153.354L132.761 136.069C133.04 135.969 133.355 136.009 133.597 136.182C133.841 136.354 133.985 136.633 133.985 136.931V149.105C133.985 149.515 133.712 149.877 133.315 149.987L85.0628 163.358C84.9815 163.379 84.9001 163.39 84.8175 163.39Z" fill="white"/>
<path d="M285.777 265.391C285.271 265.391 284.861 264.981 284.861 264.475V220.134C284.861 219.627 285.271 219.218 285.777 219.218C286.284 219.218 286.693 219.627 286.693 220.134V264.475C286.693 264.981 286.284 265.391 285.777 265.391Z" fill="white"/>
<path d="M313.146 263.503C312.639 263.503 312.23 263.092 312.23 262.587V226.688C312.23 226.181 312.639 225.772 313.146 225.772C313.653 225.772 314.062 226.181 314.062 226.688V262.587C314.062 263.092 313.653 263.503 313.146 263.503Z" fill="white"/>
<path d="M285.779 243.22C285.46 243.22 285.151 243.053 284.981 242.757C284.731 242.319 284.884 241.759 285.323 241.508L312.692 225.892C313.133 225.643 313.692 225.795 313.941 226.233C314.193 226.673 314.039 227.232 313.6 227.483L286.232 243.1C286.088 243.181 285.932 243.22 285.779 243.22Z" fill="white"/>
<path d="M143.955 212.082C143.531 212.082 143.149 211.785 143.059 211.353C142.956 210.857 143.275 210.371 143.769 210.269L195.421 199.553C195.911 199.451 196.401 199.767 196.504 200.263C196.607 200.758 196.288 201.243 195.793 201.346L144.143 212.063C144.08 212.077 144.017 212.082 143.955 212.082Z" fill="white"/>
<path d="M143.956 275.898C143.449 275.898 143.04 275.487 143.04 274.982V188.919C143.04 188.414 143.449 188.003 143.956 188.003C144.463 188.003 144.872 188.414 144.872 188.919V274.982C144.872 275.487 144.463 275.898 143.956 275.898Z" fill="white"/>
<path d="M123.759 274.891C123.253 274.891 122.843 274.481 122.843 273.975V189.199C122.843 188.694 123.253 188.283 123.759 188.283C124.266 188.283 124.675 188.694 124.675 189.199V273.975C124.675 274.481 124.266 274.891 123.759 274.891Z" fill="white"/>
<path d="M195.607 272.727C195.1 272.727 194.691 272.316 194.691 271.811V200.45C194.691 199.943 195.1 199.534 195.607 199.534C196.114 199.534 196.523 199.943 196.523 200.45V271.811C196.523 272.316 196.114 272.727 195.607 272.727Z" fill="white"/>
<path d="M243.616 268.519C243.109 268.519 242.7 268.109 242.7 267.603V211.166C242.7 210.659 243.109 210.25 243.616 210.25C244.123 210.25 244.532 210.659 244.532 211.166V267.603C244.532 268.109 244.123 268.519 243.616 268.519Z" fill="white"/>
<path d="M215.229 102.18L337.395 166.916V160.888L215.229 94.3403V102.18ZM338.311 169.354C338.163 169.354 338.016 169.319 337.881 169.247L213.885 103.542C213.585 103.382 213.399 103.071 213.399 102.732V92.799C213.399 92.4763 213.568 92.1763 213.847 92.011C214.125 91.847 214.467 91.8403 214.753 91.995L338.749 159.54C339.043 159.7 339.225 160.008 339.225 160.344V168.438C339.225 168.76 339.057 169.058 338.783 169.223C338.637 169.31 338.475 169.354 338.311 169.354Z" fill="white"/>
<path d="M215.232 132.127L337.395 185.579V178.624L215.232 121.816V132.127ZM338.311 187.896C338.185 187.896 338.06 187.871 337.943 187.819L213.949 133.566C213.616 133.419 213.401 133.09 213.401 132.726V120.379C213.401 120.067 213.56 119.775 213.824 119.607C214.089 119.439 214.419 119.418 214.704 119.548L338.697 177.21C339.02 177.36 339.225 177.684 339.225 178.04V186.98C339.225 187.29 339.071 187.578 338.812 187.746C338.66 187.846 338.485 187.896 338.311 187.896Z" fill="white"/>
<path d="M215.229 161.487L337.395 202.263V197.878L215.229 152.07V161.487ZM338.311 204.451C338.212 204.451 338.115 204.435 338.02 204.404L214.024 163.016C213.649 162.891 213.399 162.542 213.399 162.147V150.748C213.399 150.448 213.545 150.166 213.792 149.995C214.04 149.823 214.355 149.786 214.636 149.891L338.632 196.386C338.989 196.52 339.225 196.862 339.225 197.243V203.535C339.225 203.828 339.085 204.106 338.845 204.278C338.688 204.391 338.5 204.451 338.311 204.451Z" fill="white"/>
<path d="M84.1277 82.1366C84.305 82.1366 84.481 82.1886 84.633 82.2886C84.8864 82.4566 85.0411 82.7406 85.0437 83.0446L85.8517 175.991L132.869 165.083V2.75799L49.3984 65.8726L67.8597 88.8393L83.7744 82.2073C83.8877 82.1606 84.0077 82.1366 84.1277 82.1366ZM84.9451 178.057C84.7424 178.057 84.5424 177.99 84.3784 177.861C84.1597 177.689 84.0317 177.427 84.0304 177.149L83.2237 84.422L67.9304 90.7953C67.5531 90.95 67.1171 90.8406 66.8637 90.5233L47.3797 66.2846C47.2251 66.0926 47.1557 65.8446 47.1851 65.5993C47.2144 65.354 47.3437 65.13 47.5424 64.9806L133.232 0.187307C133.508 -0.0246928 133.881 -0.0566837 134.192 0.0966496C134.502 0.251316 134.7 0.56997 134.7 0.916637V165.811C134.7 166.238 134.406 166.607 133.99 166.703L85.1531 178.034C85.0837 178.05 85.0144 178.057 84.9451 178.057Z" fill="white"/>
<path d="M201.009 184.553C200.93 184.553 200.852 184.543 200.774 184.523L133.549 166.696C133.06 166.567 132.768 166.065 132.898 165.576C133.029 165.088 133.528 164.796 134.018 164.925L200.093 182.447V48.048L133.261 1.66936C132.846 1.38136 132.744 0.810685 133.032 0.394685C133.32 -0.019982 133.89 -0.125321 134.306 0.164012L201.532 46.816C201.777 46.988 201.925 47.2694 201.925 47.5694V183.637C201.925 183.921 201.793 184.191 201.568 184.363C201.406 184.488 201.208 184.553 201.009 184.553Z" fill="white"/>
<path d="M337.679 150.02C337.519 150.02 337.36 149.979 337.217 149.896L200.548 70.3908C200.111 70.1361 199.964 69.5761 200.217 69.1388C200.472 68.7028 201.029 68.5508 201.471 68.8081L337.207 147.769L339.193 142.545L200.523 55.4721C200.095 55.2028 199.965 54.6375 200.233 54.2095C200.503 53.7815 201.067 53.6508 201.496 53.9215L340.804 141.393C341.173 141.625 341.328 142.087 341.172 142.495L338.535 149.429C338.439 149.681 338.237 149.877 337.984 149.967C337.884 150.003 337.781 150.02 337.679 150.02Z" fill="white"/>
<path d="M214.314 193.101C213.807 193.101 213.398 192.69 213.398 192.185V77.3395C213.398 76.8342 213.807 76.4235 214.314 76.4235C214.821 76.4235 215.23 76.8342 215.23 77.3395V192.185C215.23 192.69 214.821 193.101 214.314 193.101Z" fill="white"/>
<path d="M25.6993 259.946L60.258 264.681L60.69 223.675L26.586 215.319L25.6993 259.946ZM62.0873 264.931L134.053 274.789L337.397 259.891L337.495 233.061L133.798 187.59L29.4727 214.141L61.8313 222.07C62.2447 222.17 62.534 222.543 62.5287 222.969L62.0873 264.931ZM134.023 276.626C133.982 276.626 133.941 276.623 133.899 276.617L61.0433 266.637C61.0393 266.637 61.0353 266.635 61.0313 266.635L24.6433 261.65C24.182 261.587 23.842 261.19 23.8513 260.725L27.7393 65.0459C27.7447 64.7725 27.8713 64.5165 28.0847 64.3472L53.3273 44.2605C53.6327 44.0192 54.0553 43.9965 54.382 44.1992L66.246 51.6019C66.5033 51.7619 66.6633 52.0379 66.6767 52.3392C66.69 52.6405 66.5553 52.9285 66.314 53.1112L49.0087 66.1686V190.914L133.581 171.729C133.722 171.698 133.863 171.699 134.002 171.733L337.394 221.571V216.457L214.077 183.505C213.589 183.375 213.298 182.873 213.429 182.385C213.561 181.895 214.062 181.603 214.551 181.735L338.547 214.869C338.947 214.975 339.226 215.339 339.226 215.754V222.738C339.226 223.019 339.097 223.285 338.875 223.459C338.654 223.633 338.363 223.697 338.093 223.627L133.777 173.563L48.2967 192.954C48.0233 193.014 47.7407 192.951 47.522 192.777C47.3047 192.603 47.178 192.339 47.178 192.061V65.7112C47.178 65.4245 47.3127 65.1539 47.542 64.9805L64.146 52.4512L53.9607 46.0966L29.562 65.5125L26.6327 212.973L133.559 185.761C133.695 185.726 133.842 185.722 133.983 185.754L338.614 231.434C339.034 231.527 339.333 231.901 339.33 232.331L339.226 260.746C339.225 261.225 338.854 261.621 338.377 261.657L134.09 276.623C134.067 276.625 134.046 276.626 134.023 276.626Z" fill="white"/>
<path d="M85.1551 94.9381L85.3737 104.573L132.155 79.7888V67.5075L85.1551 94.9381ZM84.4924 106.993C84.3324 106.993 84.1724 106.95 84.0284 106.866C83.7551 106.706 83.5831 106.414 83.5764 106.097L83.3111 94.4395C83.3031 94.1061 83.4764 93.7968 83.7644 93.6288L132.608 65.1221C132.894 64.9568 133.243 64.9541 133.526 65.1181C133.811 65.2821 133.986 65.5848 133.986 65.9128V80.3408C133.986 80.6795 133.798 80.9915 133.499 81.1501L84.9204 106.885C84.7871 106.957 84.6391 106.993 84.4924 106.993Z" fill="white"/>
<path d="M195.607 231.225C195.244 231.225 194.899 231.006 194.756 230.647C194.57 230.178 194.799 229.645 195.267 229.458L243.276 210.315C243.746 210.129 244.28 210.357 244.467 210.827C244.654 211.297 244.424 211.83 243.956 212.017L195.947 231.159C195.835 231.203 195.72 231.225 195.607 231.225Z" fill="white"/>
<path d="M243.616 240.301C243.268 240.301 242.936 240.102 242.783 239.765C242.573 239.305 242.775 238.762 243.236 238.551L285.397 219.301C285.86 219.091 286.401 219.293 286.611 219.753C286.82 220.213 286.619 220.757 286.157 220.967L243.996 240.218C243.872 240.274 243.744 240.301 243.616 240.301Z" fill="white"/>
<path d="M61.6122 223.875C61.1908 223.875 60.8108 223.582 60.7175 223.152C60.6108 222.658 60.9255 222.171 61.4202 222.064L123.567 208.65C124.061 208.536 124.547 208.856 124.655 209.351C124.761 209.846 124.447 210.332 123.952 210.439L61.8068 223.854C61.7415 223.868 61.6762 223.875 61.6122 223.875Z" fill="white"/>
<path d="M23.8576 267.214V260.354L134.023 275.709L339.155 260.736L339.259 266.062L133.783 281.534L23.8576 267.214Z" fill="white"/>
<path d="M89.1107 269.331H88.1947V217.417H89.1107V269.331Z" fill="white"/>
<path d="M92.4293 271.856H91.5133V217.419H92.4293V271.856Z" fill="white"/>
<path d="M133.068 278.226C132.561 278.226 132.152 277.815 132.152 277.31V188.249C132.152 187.743 132.561 187.333 133.068 187.333C133.575 187.333 133.984 187.743 133.984 188.249V277.31C133.984 277.815 133.575 278.226 133.068 278.226Z" fill="white"/>
</g>
</g>
<defs>
<clipPath id="clip0_4_4">
<rect width="1379.96" height="395.901" fill="white"/>
</clipPath>
</defs>
</svg>
