<?xml version="1.0" encoding="UTF-8" standalone="no"?>
<!-- Created with Inkscape (http://www.inkscape.org/) -->

<svg
   version="1.1"
   id="svg2"
   width="1379.96"
   height="395.90134"
   viewBox="0 0 1379.96 395.90134"
   sodipodi:docname="Logo Gnenesis 2024 Fin .ai"
   xmlns:inkscape="http://www.inkscape.org/namespaces/inkscape"
   xmlns:sodipodi="http://sodipodi.sourceforge.net/DTD/sodipodi-0.dtd"
   xmlns="http://www.w3.org/2000/svg"
   xmlns:svg="http://www.w3.org/2000/svg">
  <defs
     id="defs6">
    <clipPath
       clipPathUnits="userSpaceOnUse"
       id="clipPath32">
      <path
         d="M 0,296.926 H 1034.971 V 0 H 0 Z"
         id="path30" />
    </clipPath>
  </defs>
  <sodipodi:namedview
     id="namedview4"
     pagecolor="#ffffff"
     bordercolor="#000000"
     borderopacity="0.25"
     inkscape:showpageshadow="2"
     inkscape:pageopacity="0.0"
     inkscape:pagecheckerboard="0"
     inkscape:deskcolor="#d1d1d1" />
  <g
     id="g8"
     inkscape:groupmode="layer"
     inkscape:label="Logo Gnenesis 2024 Fin "
     transform="matrix(1.3333333,0,0,-1.3333333,0,395.90133)">
    <g
       id="g10"
       transform="translate(189.2768,223.2908)">
      <path
         d="M 0,0 -2.87,-4.026 V -76.282"
         style="fill:none;stroke:#000000;stroke-width:1.374;stroke-linecap:butt;stroke-linejoin:miter;stroke-miterlimit:10;stroke-dasharray:none;stroke-opacity:1"
         id="path12" />
    </g>
    <g
       id="g14"
       transform="translate(213.7969,208.9394)">
      <path
         d="M 0,0 -2.87,-4.026 V -76.282"
         style="fill:none;stroke:#000000;stroke-width:1.374;stroke-linecap:butt;stroke-linejoin:miter;stroke-miterlimit:10;stroke-dasharray:none;stroke-opacity:1"
         id="path16" />
    </g>
    <g
       id="g18"
       transform="translate(232.9704,198.6234)">
      <path
         d="M 0,0 -2.87,-4.026 V -76.282"
         style="fill:none;stroke:#000000;stroke-width:1.374;stroke-linecap:butt;stroke-linejoin:miter;stroke-miterlimit:10;stroke-dasharray:none;stroke-opacity:1"
         id="path20" />
    </g>
    <g
       id="g22"
       transform="translate(254.4192,102.2202)">
      <path
         d="M 0,0 -154.618,-13.964 -236.526,0 h -17.893 V -46.383 H 780.552 V 0 Z"
         style="fill:#f80302;fill-opacity:1;fill-rule:nonzero;stroke:none"
         id="path24" />
    </g>
    <g
       id="g26">
      <g
         id="g28"
         clip-path="url(#clipPath32)">
        <g
           id="g34"
           transform="translate(404.7238,171.8999)">
          <path
             d="m 0,0 c -11.459,-1.479 -12.198,-2.587 -12.198,-13.493 v -15.525 c 0,-6.469 0.184,-12.568 1.108,-17.559 -11.459,-2.588 -26.431,-6.654 -41.956,-6.654 -41.956,0 -67.463,26.061 -67.463,63.212 0,38.999 31.791,62.288 68.757,62.288 18.853,0 32.715,-3.697 38.444,-4.622 0.37,-6.838 1.294,-18.113 2.773,-29.757 l -5.545,-1.109 c -4.436,15.711 -9.796,22.365 -21.441,26.246 -4.25,1.478 -11.829,2.403 -17.188,2.403 -28.279,0 -46.577,-19.408 -46.577,-53.231 0,-29.388 15.156,-58.591 51.013,-58.591 6.284,0 12.013,1.293 15.71,3.142 3.881,2.218 6.285,4.251 6.285,11.829 v 15.156 c 0,13.493 -1.479,14.971 -19.223,16.265 V 5.36 L 0,5.36 Z"
             style="fill:#000000;fill-opacity:1;fill-rule:nonzero;stroke:none"
             id="path36" />
        </g>
        <g
           id="g38"
           transform="translate(515.0695,150.8291)">
          <path
             d="m 0,0 c -1.109,-4.805 -6.1,-23.843 -7.948,-29.388 h -89.827 v 5.176 c 17.189,1.294 18.483,2.957 18.483,18.113 v 73.008 c 0,16.449 -2.033,17.374 -15.896,18.667 v 5.175 h 56.558 c 17.374,0 24.583,0.186 26.801,0.37 0.184,-4.621 0.924,-18.483 1.663,-28.279 l -5.545,-0.924 c -1.663,6.284 -3.512,10.166 -5.545,14.047 -2.957,6.099 -7.208,7.393 -18.298,7.393 h -17.558 c -5.73,0 -6.1,-0.554 -6.1,-5.914 V 36.597 h 20.516 c 13.862,0 14.787,2.772 17.005,15.341 h 5.729 V 13.862 h -5.729 c -2.404,13.308 -3.882,15.157 -17.19,15.157 H -63.212 V -7.763 c 0,-12.938 4.066,-14.047 13.308,-14.232 h 17.189 c 11.275,0 13.123,1.664 17.19,6.47 3.511,3.881 7.392,11.459 9.98,17.004 z"
             style="fill:#000000;fill-opacity:1;fill-rule:nonzero;stroke:none"
             id="path40" />
        </g>
        <g
           id="g42"
           transform="translate(655.7258,236.4053)">
          <path
             d="m 0,0 c -11.83,-1.293 -15.711,-3.142 -16.266,-11.644 -0.184,-5.915 -0.554,-13.677 -0.554,-30.867 v -74.116 h -7.024 l -79.106,96.666 v -46.208 c 0,-16.635 0.554,-24.952 0.924,-30.312 0.369,-9.426 4.99,-12.199 18.297,-13.308 v -5.175 h -44.913 v 5.175 c 11.459,0.925 15.895,3.697 16.635,12.754 0.554,5.914 0.924,14.231 0.924,31.051 v 47.131 c 0,5.176 -0.37,8.133 -3.696,12.199 -3.512,4.621 -7.394,5.73 -16.45,6.654 v 5.175 h 27.724 l 78.367,-92.969 v 45.283 c 0,17.19 -0.369,25.137 -0.924,30.682 C -26.616,-3.512 -30.867,-0.924 -45.653,0 V 5.175 L 0,5.175 Z"
             style="fill:#000000;fill-opacity:1;fill-rule:nonzero;stroke:none"
             id="path44" />
        </g>
        <g
           id="g46"
           transform="translate(766.4396,150.8291)">
          <path
             d="m 0,0 c -1.109,-4.805 -6.1,-23.843 -7.948,-29.388 h -89.827 v 5.176 c 17.189,1.294 18.483,2.957 18.483,18.113 v 73.008 c 0,16.449 -2.033,17.374 -15.896,18.667 v 5.175 h 56.558 c 17.374,0 24.583,0.186 26.801,0.37 0.184,-4.621 0.924,-18.483 1.663,-28.279 l -5.545,-0.924 c -1.663,6.284 -3.512,10.166 -5.545,14.047 -2.957,6.099 -7.208,7.393 -18.298,7.393 h -17.558 c -5.731,0 -6.1,-0.554 -6.1,-5.914 V 36.597 h 20.516 c 13.862,0 14.787,2.772 17.005,15.341 h 5.729 V 13.862 h -5.729 c -2.404,13.308 -3.882,15.157 -17.19,15.157 H -63.212 V -7.763 c 0,-12.938 4.066,-14.047 13.308,-14.232 h 17.189 c 11.275,0 13.123,1.664 17.189,6.47 3.512,3.881 7.393,11.459 9.981,17.004 z"
             style="fill:#000000;fill-opacity:1;fill-rule:nonzero;stroke:none"
             id="path48" />
        </g>
        <g
           id="g50"
           transform="translate(843.5139,213.4868)">
          <path
             d="m 0,0 c -3.142,12.199 -8.317,24.212 -25.691,24.212 -14.417,0 -19.408,-10.535 -19.408,-20.146 0,-12.753 8.133,-19.222 23.474,-27.17 22.18,-11.459 31.791,-19.961 31.791,-37.521 0,-19.406 -16.819,-34.193 -40.663,-34.193 -11.09,0 -20.7,3.142 -28.278,6.1 -1.479,5.175 -3.698,17.743 -4.992,27.724 l 5.731,1.479 c 3.696,-12.384 11.829,-28.464 31.051,-28.464 13.307,0 21.44,9.241 21.44,21.255 0,14.232 -7.578,19.962 -23.843,28.834 -19.407,10.535 -30.312,19.407 -30.312,36.596 0,16.45 13.678,31.976 38.075,31.976 10.351,0 20.517,-2.773 24.397,-3.512 0.74,-6.654 1.479,-14.047 2.957,-26.061 z"
             style="fill:#000000;fill-opacity:1;fill-rule:nonzero;stroke:none"
             id="path52" />
        </g>
        <g
           id="g54"
           transform="translate(869.5764,121.4414)">
          <path
             d="m 0,0 v 5.175 c 15.156,1.664 16.635,2.403 16.635,18.114 v 73.377 c 0,15.896 -1.479,16.635 -16.635,18.298 v 5.175 h 49.534 v -5.175 C 34.193,113.301 32.715,112.562 32.715,96.666 V 23.289 c 0,-15.896 1.478,-16.45 16.819,-18.114 l 0,-5.175 z"
             style="fill:#000000;fill-opacity:1;fill-rule:nonzero;stroke:none"
             id="path56" />
        </g>
        <g
           id="g58"
           transform="translate(998.5891,213.4868)">
          <path
             d="m 0,0 c -3.142,12.199 -8.317,24.212 -25.691,24.212 -14.417,0 -19.408,-10.535 -19.408,-20.146 0,-12.753 8.133,-19.222 23.474,-27.17 22.18,-11.459 31.791,-19.961 31.791,-37.521 0,-19.406 -16.819,-34.193 -40.663,-34.193 -11.09,0 -20.7,3.142 -28.278,6.1 -1.479,5.175 -3.698,17.743 -4.992,27.724 l 5.731,1.479 c 3.696,-12.384 11.829,-28.464 31.051,-28.464 13.307,0 21.44,9.241 21.44,21.255 0,14.232 -7.578,19.962 -23.843,28.834 -19.407,10.535 -30.312,19.407 -30.312,36.596 0,16.45 13.678,31.976 38.075,31.976 10.351,0 20.517,-2.773 24.397,-3.512 0.74,-6.654 1.479,-14.047 2.957,-26.061 z"
             style="fill:#000000;fill-opacity:1;fill-rule:nonzero;stroke:none"
             id="path60" />
        </g>
        <g
           id="g62"
           transform="translate(310.2053,77.5449)">
          <path
             d="M 0,0 C -0.186,3.488 -0.408,7.682 -0.371,10.799 H -0.482 C -1.336,7.867 -2.375,4.75 -3.637,1.299 l -4.416,-12.135 h -2.449 l -4.045,11.912 c -1.187,3.526 -2.189,6.754 -2.894,9.723 h -0.075 C -17.59,7.682 -17.775,3.488 -17.998,-0.26 l -0.668,-10.724 h -3.08 l 1.744,25.011 h 4.119 L -11.615,1.93 c 1.039,-3.08 1.892,-5.826 2.523,-8.424 h 0.112 c 0.63,2.523 1.521,5.269 2.634,8.424 l 4.453,12.097 h 4.12 L 3.785,-10.984 H 0.631 Z"
             style="fill:#ffffff;fill-opacity:1;fill-rule:nonzero;stroke:none"
             id="path64" />
        </g>
        <g
           id="g66"
           transform="translate(342.8195,76.9512)">
          <path
             d="m 0,0 -2.449,7.199 c -0.557,1.633 -0.928,3.117 -1.299,4.565 H -3.822 C -4.193,10.279 -4.602,8.758 -5.084,7.236 L -7.533,0 Z m -8.201,-2.523 -2.598,-7.868 h -3.34 l 8.498,25.012 h 3.897 L 6.791,-10.391 H 3.34 l -2.672,7.868 z"
             style="fill:#ffffff;fill-opacity:1;fill-rule:nonzero;stroke:none"
             id="path68" />
        </g>
        <g
           id="g70"
           transform="translate(368.4953,79.8457)">
          <path
             d="m 0,0 h 3.303 c 3.451,0 5.64,1.893 5.64,4.75 0,3.229 -2.338,4.639 -5.752,4.676 C 1.633,9.426 0.52,9.277 0,9.129 Z m -3.229,11.393 c 1.633,0.334 3.971,0.519 6.198,0.519 3.451,0 5.677,-0.631 7.236,-2.041 1.262,-1.113 1.967,-2.82 1.967,-4.75 0,-3.303 -2.078,-5.492 -4.713,-6.383 v -0.111 c 1.93,-0.668 3.08,-2.449 3.674,-5.047 0.816,-3.488 1.41,-5.9 1.93,-6.865 h -3.34 c -0.409,0.705 -0.965,2.857 -1.67,5.974 -0.742,3.452 -2.078,4.75 -5.01,4.862 H 0 v -10.836 h -3.229 z"
             style="fill:#ffffff;fill-opacity:1;fill-rule:nonzero;stroke:none"
             id="path72" />
        </g>
        <g
           id="g74"
           transform="translate(397.2141,91.5723)">
          <path
             d="M 0,0 H 3.229 V -12.061 H 3.34 c 0.668,0.965 1.336,1.856 1.967,2.672 L 12.951,0 h 4.008 l -9.055,-10.613 9.76,-14.399 h -3.822 l -8.238,12.283 -2.375,-2.746 v -9.537 H 0 Z"
             style="fill:#ffffff;fill-opacity:1;fill-rule:nonzero;stroke:none"
             id="path76" />
        </g>
        <g
           id="g78"
           transform="translate(442.2619,78.2871)">
          <path
             d="M 0,0 H -9.723 V -9.018 H 1.113 v -2.709 H -12.951 V 13.285 H 0.557 V 10.576 H -9.723 V 2.672 l 9.723,0 z"
             style="fill:#ffffff;fill-opacity:1;fill-rule:nonzero;stroke:none"
             id="path80" />
        </g>
        <g
           id="g82"
           transform="translate(464.8937,88.8262)">
          <path
             d="M 0,0 H -7.607 V 2.746 H 10.91 V 0 H 3.266 V -22.266 H 0 Z"
             style="fill:#ffffff;fill-opacity:1;fill-rule:nonzero;stroke:none"
             id="path84" />
        </g>
        <path
           d="m 493.799,66.561 h -3.229 v 25.012 h 3.229 z"
           style="fill:#ffffff;fill-opacity:1;fill-rule:nonzero;stroke:none"
           id="path86" />
        <g
           id="g88"
           transform="translate(511.423,66.5605)">
          <path
             d="m 0,0 v 25.012 h 3.525 l 8.016,-12.655 c 1.855,-2.931 3.303,-5.566 4.49,-8.127 l 0.074,0.038 c -0.296,3.339 -0.371,6.382 -0.371,10.279 v 10.465 h 3.043 V 0 H 15.512 L 7.57,12.691 c -1.744,2.784 -3.414,5.641 -4.675,8.35 L 2.783,21.004 c 0.186,-3.154 0.26,-6.16 0.26,-10.316 V 0 Z"
             style="fill:#ffffff;fill-opacity:1;fill-rule:nonzero;stroke:none"
             id="path90" />
        </g>
        <g
           id="g92"
           transform="translate(566.8605,67.6738)">
          <path
             d="m 0,0 c -1.447,-0.52 -4.305,-1.373 -7.682,-1.373 -3.785,0 -6.902,0.965 -9.351,3.303 -2.153,2.078 -3.488,5.418 -3.488,9.314 0.037,7.459 5.158,12.914 13.544,12.914 2.895,0 5.159,-0.631 6.235,-1.15 l -0.779,-2.635 c -1.336,0.594 -3.006,1.076 -5.53,1.076 -6.086,0 -10.056,-3.785 -10.056,-10.056 0,-6.346 3.822,-10.094 9.648,-10.094 2.115,0 3.563,0.297 4.305,0.668 v 7.459 h -5.084 v 2.597 H 0 Z"
             style="fill:#ffffff;fill-opacity:1;fill-rule:nonzero;stroke:none"
             id="path94" />
        </g>
        <g
           id="g96"
           transform="translate(607.7482,86.1172)">
          <path
             d="m 0,0 c 0,-1.781 0.816,-3.154 1.893,-4.49 2.523,1.447 4.156,2.783 4.156,4.898 0,1.522 -0.854,3.229 -2.895,3.229 C 1.076,3.637 0,1.93 0,0 m 7.607,-15.252 c -1.484,1.633 -4.267,4.676 -7.05,7.867 -1.336,-0.853 -3.229,-2.449 -3.229,-5.084 0,-2.857 2.115,-5.047 5.121,-5.047 2.153,0 3.971,0.965 5.158,2.264 m 3.934,-4.305 c -0.705,0.705 -1.373,1.411 -2.338,2.45 -2.152,-2.004 -4.564,-2.858 -7.31,-2.858 -4.862,0 -7.682,3.266 -7.682,7.014 0,3.414 2.041,5.752 4.898,7.31 v 0.112 c -1.298,1.633 -2.078,3.451 -2.078,5.232 0,3.043 2.19,6.16 6.346,6.16 3.117,0 5.529,-2.078 5.529,-5.306 0,-2.635 -1.521,-4.713 -5.492,-6.68 v -0.111 c 2.115,-2.45 4.49,-5.196 6.086,-6.977 1.15,1.744 1.93,4.156 2.412,7.311 h 2.969 c -0.668,-3.934 -1.744,-7.051 -3.6,-9.241 1.336,-1.41 2.635,-2.82 4.119,-4.416 z"
             style="fill:#ffffff;fill-opacity:1;fill-rule:nonzero;stroke:none"
             id="path98" />
        </g>
        <g
           id="g100"
           transform="translate(661.1428,69.1211)">
          <path
             d="m 0,0 c 0.816,-0.148 2.004,-0.186 3.266,-0.186 6.902,0 10.65,3.86 10.65,10.614 0.037,5.9 -3.303,9.648 -10.131,9.648 -1.67,0 -2.931,-0.148 -3.785,-0.334 z m -3.229,22.117 c 1.967,0.297 4.305,0.52 6.866,0.52 4.638,0 7.941,-1.076 10.131,-3.117 2.226,-2.041 3.525,-4.936 3.525,-8.981 0,-4.082 -1.262,-7.422 -3.6,-9.723 -2.338,-2.337 -6.197,-3.599 -11.058,-3.599 -2.301,0 -4.231,0.111 -5.864,0.297 z"
             style="fill:#ffffff;fill-opacity:1;fill-rule:nonzero;stroke:none"
             id="path102" />
        </g>
        <path
           d="m 697.839,66.561 h -3.229 v 25.012 h 3.229 z"
           style="fill:#ffffff;fill-opacity:1;fill-rule:nonzero;stroke:none"
           id="path104" />
        <g
           id="g106"
           transform="translate(715.0187,70.4941)">
          <path
             d="m 0,0 c 1.447,-0.891 3.563,-1.633 5.789,-1.633 3.303,0 5.232,1.744 5.232,4.268 0,2.338 -1.335,3.674 -4.712,4.972 -4.082,1.448 -6.606,3.563 -6.606,7.088 0,3.897 3.229,6.791 8.09,6.791 2.561,0 4.416,-0.593 5.529,-1.224 l -0.89,-2.635 c -0.817,0.445 -2.487,1.187 -4.75,1.187 -3.414,0 -4.713,-2.041 -4.713,-3.748 0,-2.337 1.521,-3.488 4.972,-4.824 4.231,-1.633 6.383,-3.674 6.383,-7.347 0,-3.86 -2.857,-7.2 -8.758,-7.2 -2.412,0 -5.046,0.705 -6.382,1.596 z"
             style="fill:#ffffff;fill-opacity:1;fill-rule:nonzero;stroke:none"
             id="path108" />
        </g>
        <g
           id="g110"
           transform="translate(750.4914,88.8262)">
          <path
             d="M 0,0 H -7.607 V 2.746 H 10.91 V 0 H 3.266 V -22.266 H 0 Z"
             style="fill:#ffffff;fill-opacity:1;fill-rule:nonzero;stroke:none"
             id="path112" />
        </g>
        <g
           id="g114"
           transform="translate(779.3957,79.8457)">
          <path
             d="m 0,0 h 3.303 c 3.451,0 5.64,1.893 5.64,4.75 0,3.229 -2.338,4.639 -5.752,4.676 C 1.633,9.426 0.52,9.277 0,9.129 Z m -3.229,11.393 c 1.633,0.334 3.971,0.519 6.198,0.519 3.451,0 5.677,-0.631 7.236,-2.041 1.262,-1.113 1.967,-2.82 1.967,-4.75 0,-3.303 -2.078,-5.492 -4.713,-6.383 v -0.111 c 1.93,-0.668 3.08,-2.449 3.674,-5.047 0.816,-3.488 1.41,-5.9 1.93,-6.865 h -3.34 c -0.409,0.705 -0.965,2.857 -1.67,5.974 -0.742,3.452 -2.078,4.75 -5.01,4.862 H 0 v -10.836 h -3.229 z"
             style="fill:#ffffff;fill-opacity:1;fill-rule:nonzero;stroke:none"
             id="path116" />
        </g>
        <path
           d="m 811.344,66.561 h -3.229 v 25.012 h 3.229 z"
           style="fill:#ffffff;fill-opacity:1;fill-rule:nonzero;stroke:none"
           id="path118" />
        <g
           id="g120"
           transform="translate(832.1965,69.0098)">
          <path
             d="m 0,0 c 0.631,-0.111 1.559,-0.148 2.709,-0.148 3.34,0 6.42,1.224 6.42,4.861 0,3.414 -2.932,4.824 -6.457,4.824 L 0,9.537 Z m 0,11.986 h 2.932 c 3.414,0 5.418,1.782 5.418,4.194 0,2.931 -2.227,4.082 -5.493,4.082 C 1.373,20.262 0.52,20.15 0,20.039 Z m -3.229,10.243 c 1.411,0.296 3.637,0.519 5.901,0.519 3.228,0 5.307,-0.557 6.865,-1.818 1.299,-0.965 2.078,-2.45 2.078,-4.416 0,-2.412 -1.595,-4.528 -4.23,-5.493 v -0.074 c 2.375,-0.593 5.158,-2.56 5.158,-6.271 0,-2.153 -0.854,-3.785 -2.115,-5.01 -1.744,-1.596 -4.565,-2.338 -8.647,-2.338 -2.226,0 -3.933,0.149 -5.01,0.297 z"
             style="fill:#ffffff;fill-opacity:1;fill-rule:nonzero;stroke:none"
             id="path122" />
        </g>
        <g
           id="g124"
           transform="translate(864.2922,91.5723)">
          <path
             d="m 0,0 v -14.807 c 0,-5.603 2.486,-7.978 5.826,-7.978 3.711,0 6.086,2.449 6.086,7.978 V 0 h 3.266 v -14.584 c 0,-7.682 -4.045,-10.836 -9.463,-10.836 -5.121,0 -8.981,2.932 -8.981,10.688 V 0 Z"
             style="fill:#ffffff;fill-opacity:1;fill-rule:nonzero;stroke:none"
             id="path126" />
        </g>
        <g
           id="g128"
           transform="translate(901.8058,88.8262)">
          <path
             d="M 0,0 H -7.607 V 2.746 H 10.91 V 0 H 3.266 V -22.266 H 0 Z"
             style="fill:#ffffff;fill-opacity:1;fill-rule:nonzero;stroke:none"
             id="path130" />
        </g>
        <path
           d="m 930.71,66.561 h -3.229 v 25.012 h 3.229 z"
           style="fill:#ffffff;fill-opacity:1;fill-rule:nonzero;stroke:none"
           id="path132" />
        <g
           id="g134"
           transform="translate(950.3019,78.918)">
          <path
             d="m 0,0 c 0,-5.344 2.895,-10.131 7.979,-10.131 5.121,0 8.015,4.713 8.015,10.391 0,4.972 -2.598,10.168 -7.978,10.168 C 2.672,10.428 0,5.492 0,0 m 19.408,0.408 c 0,-8.609 -5.232,-13.174 -11.615,-13.174 -6.606,0 -11.244,5.121 -11.244,12.692 0,7.941 4.935,13.137 11.615,13.137 6.828,0 11.244,-5.233 11.244,-12.655"
             style="fill:#ffffff;fill-opacity:1;fill-rule:nonzero;stroke:none"
             id="path136" />
        </g>
        <g
           id="g138"
           transform="translate(985.8859,66.5605)">
          <path
             d="m 0,0 v 25.012 h 3.525 l 8.016,-12.655 c 1.855,-2.931 3.303,-5.566 4.49,-8.127 l 0.074,0.038 c -0.296,3.339 -0.371,6.382 -0.371,10.279 v 10.465 h 3.043 V 0 H 15.512 L 7.57,12.691 c -1.744,2.784 -3.414,5.641 -4.675,8.35 L 2.783,21.004 c 0.186,-3.154 0.26,-6.16 0.26,-10.316 V 0 Z"
             style="fill:#ffffff;fill-opacity:1;fill-rule:nonzero;stroke:none"
             id="path140" />
        </g>
        <g
           id="g142"
           transform="translate(31.6213,25.0503)">
          <path
             d="M 0,0 C -0.197,4.298 -0.444,9.486 -0.396,13.982 H -0.544 C -1.631,9.931 -3.014,5.435 -4.496,1.235 l -4.842,-14.427 h -4.694 l -4.447,14.23 c -1.284,4.249 -2.47,8.794 -3.359,12.944 h -0.099 c -0.148,-4.348 -0.346,-9.634 -0.593,-14.18 l -0.741,-13.389 h -5.682 l 2.224,33.3 h 8.003 l 4.348,-13.389 c 1.186,-3.903 2.224,-7.856 3.064,-11.561 h 0.148 c 0.89,3.606 2.025,7.707 3.311,11.611 l 4.594,13.339 h 7.906 l 1.926,-33.3 H 0.643 Z"
             style="fill:#000000;fill-opacity:1;fill-rule:nonzero;stroke:none"
             id="path144" />
        </g>
        <g
           id="g146"
           transform="translate(78.6164,25.4946)">
          <path
             d="m 0,0 -2.619,8.202 c -0.642,2.026 -1.186,4.298 -1.68,6.225 H -4.397 C -4.892,12.5 -5.386,10.178 -5.979,8.202 L -8.548,0 Z m -9.536,-4.595 -2.865,-9.437 h -6.276 l 10.673,33.301 h 7.757 l 10.82,-33.301 H 4.052 l -3.015,9.437 z"
             style="fill:#000000;fill-opacity:1;fill-rule:nonzero;stroke:none"
             id="path148" />
        </g>
        <g
           id="g150"
           transform="translate(114.5422,39.6748)">
          <path
             d="M 0,0 H -9.486 V 5.089 H 15.662 V 0 H 6.077 V -28.212 H 0 Z"
             style="fill:#000000;fill-opacity:1;fill-rule:nonzero;stroke:none"
             id="path152" />
        </g>
        <g
           id="g154"
           transform="translate(171.0705,26.2358)">
          <path
             d="M 0,0 H -12.55 V -9.783 H 1.482 v -4.99 H -18.627 V 18.528 H 0.741 v -4.99 H -12.55 V 4.941 l 12.55,0 z"
             style="fill:#000000;fill-opacity:1;fill-rule:nonzero;stroke:none"
             id="path156" />
        </g>
        <g
           id="g158"
           transform="translate(202.2541,29.5957)">
          <path
             d="m 0,0 h 3.606 c 4.101,0 6.67,2.174 6.67,5.484 0,3.657 -2.569,5.336 -6.521,5.336 C 1.828,10.82 0.593,10.672 0,10.524 Z m -6.028,14.724 c 2.272,0.395 5.681,0.691 9.19,0.691 4.792,0 8.053,-0.79 10.276,-2.668 1.829,-1.532 2.867,-3.853 2.867,-6.67 0,-4.298 -2.915,-7.214 -6.029,-8.35 v -0.148 c 2.372,-0.89 3.805,-3.212 4.645,-6.423 1.037,-4.15 1.927,-8.004 2.618,-9.289 h -6.274 c -0.494,0.988 -1.285,3.706 -2.224,7.856 -0.938,4.348 -2.52,5.732 -5.978,5.83 H 0 v -13.686 h -6.028 z"
             style="fill:#000000;fill-opacity:1;fill-rule:nonzero;stroke:none"
             id="path160" />
        </g>
        <path
           d="m 248.752,11.463 h -6.077 v 33.301 h 6.077 z"
           style="fill:#000000;fill-opacity:1;fill-rule:nonzero;stroke:none"
           id="path162" />
        <g
           id="g164"
           transform="translate(290.259,25.4946)">
          <path
             d="m 0,0 -2.619,8.202 c -0.642,2.026 -1.186,4.298 -1.68,6.225 H -4.397 C -4.892,12.5 -5.386,10.178 -5.979,8.202 L -8.548,0 Z m -9.536,-4.595 -2.865,-9.437 h -6.276 l 10.673,33.301 h 7.757 l 10.82,-33.301 H 4.052 l -3.015,9.437 z"
             style="fill:#000000;fill-opacity:1;fill-rule:nonzero;stroke:none"
             id="path166" />
        </g>
        <g
           id="g168"
           transform="translate(323.8127,44.7637)">
          <path
             d="m 0,0 h 6.077 v -28.212 h 13.687 v -5.089 H 0 Z"
             style="fill:#000000;fill-opacity:1;fill-rule:nonzero;stroke:none"
             id="path170" />
        </g>
        <g
           id="g172"
           transform="translate(385.134,26.2358)">
          <path
             d="M 0,0 H -12.55 V -9.783 H 1.482 v -4.99 H -18.627 V 18.528 H 0.741 v -4.99 H -12.55 V 4.941 l 12.55,0 z"
             style="fill:#000000;fill-opacity:1;fill-rule:nonzero;stroke:none"
             id="path174" />
        </g>
        <g
           id="g176"
           transform="translate(444.9269,16.1074)">
          <path
             d="M 0,0 C 0.84,-0.148 2.125,-0.148 3.36,-0.148 11.266,-0.198 15.959,4.15 15.959,12.599 16.009,19.96 11.76,24.16 4.15,24.16 2.224,24.16 0.84,24.012 0,23.814 Z m -6.077,28.212 c 2.668,0.444 6.077,0.691 9.684,0.691 6.225,0 10.524,-1.284 13.587,-3.853 3.211,-2.619 5.188,-6.571 5.188,-12.254 0,-5.928 -2.026,-10.375 -5.188,-13.241 -3.31,-3.014 -8.596,-4.545 -15.069,-4.545 -3.558,0 -6.226,0.197 -8.202,0.444 z"
             style="fill:#000000;fill-opacity:1;fill-rule:nonzero;stroke:none"
             id="path178" />
        </g>
        <g
           id="g180"
           transform="translate(509.5598,26.2358)">
          <path
             d="M 0,0 H -12.55 V -9.783 H 1.482 v -4.99 H -18.627 V 18.528 H 0.741 v -4.99 H -12.55 V 4.941 l 12.55,0 z"
             style="fill:#000000;fill-opacity:1;fill-rule:nonzero;stroke:none"
             id="path182" />
        </g>
        <g
           id="g184"
           transform="translate(587.1398,12.4512)">
          <path
             d="m 0,0 c -1.433,-0.741 -4.595,-1.482 -8.597,-1.482 -10.573,0 -16.997,6.62 -16.997,16.749 0,10.968 7.61,17.589 17.787,17.589 4.002,0 6.869,-0.84 8.104,-1.482 l -1.335,-4.842 c -1.581,0.692 -3.755,1.284 -6.522,1.284 -6.768,0 -11.66,-4.249 -11.66,-12.253 0,-7.312 4.299,-12.006 11.611,-12.006 2.47,0 5.04,0.494 6.621,1.235 z"
             style="fill:#000000;fill-opacity:1;fill-rule:nonzero;stroke:none"
             id="path186" />
        </g>
        <g
           id="g188"
           transform="translate(614.0744,27.9653)">
          <path
             d="m 0,0 c 0,-6.769 3.409,-12.155 9.239,-12.155 5.879,0 9.19,5.435 9.19,12.402 0,6.274 -3.113,12.204 -9.19,12.204 C 3.211,12.451 0,6.868 0,0 m 24.852,0.494 c 0,-11.166 -6.769,-17.54 -15.959,-17.54 -9.387,0 -15.317,7.164 -15.317,16.947 0,10.227 6.424,17.441 15.811,17.441 9.733,0 15.465,-7.362 15.465,-16.848"
             style="fill:#000000;fill-opacity:1;fill-rule:nonzero;stroke:none"
             id="path190" />
        </g>
        <g
           id="g192"
           transform="translate(662.5012,11.4629)">
          <path
             d="m 0,0 v 33.301 h 6.917 l 8.598,-14.279 c 2.222,-3.706 4.149,-7.559 5.681,-11.166 h 0.099 c -0.396,4.447 -0.543,8.745 -0.543,13.834 v 11.611 h 5.632 V 0 H 20.109 L 11.413,14.625 C 9.289,18.281 7.065,22.382 5.435,26.137 L 5.287,26.087 C 5.534,21.789 5.583,17.392 5.583,11.907 V 0 Z"
             style="fill:#000000;fill-opacity:1;fill-rule:nonzero;stroke:none"
             id="path194" />
        </g>
        <g
           id="g196"
           transform="translate(714.09,18.0835)">
          <path
             d="m 0,0 c 1.977,-1.136 4.941,-2.125 8.054,-2.125 3.903,0 6.077,1.829 6.077,4.546 0,2.52 -1.68,4.002 -5.929,5.534 -5.484,1.976 -8.992,4.891 -8.992,9.684 0,5.435 4.545,9.585 11.759,9.585 3.607,0 6.275,-0.791 8.004,-1.68 l -1.482,-4.891 c -1.186,0.642 -3.509,1.581 -6.621,1.581 -3.853,0 -5.533,-2.075 -5.533,-4.003 0,-2.568 1.927,-3.754 6.373,-5.483 5.781,-2.175 8.597,-5.09 8.597,-9.882 0,-5.336 -4.051,-9.981 -12.649,-9.981 -3.508,0 -7.164,0.989 -8.992,2.075 z"
             style="fill:#000000;fill-opacity:1;fill-rule:nonzero;stroke:none"
             id="path198" />
        </g>
        <g
           id="g200"
           transform="translate(764.592,39.6748)">
          <path
             d="M 0,0 H -9.486 V 5.089 H 15.662 V 0 H 6.077 V -28.212 H 0 Z"
             style="fill:#000000;fill-opacity:1;fill-rule:nonzero;stroke:none"
             id="path202" />
        </g>
        <g
           id="g204"
           transform="translate(808.5217,29.5957)">
          <path
             d="m 0,0 h 3.606 c 4.101,0 6.67,2.174 6.67,5.484 0,3.657 -2.569,5.336 -6.521,5.336 C 1.828,10.82 0.593,10.672 0,10.524 Z m -6.028,14.724 c 2.272,0.395 5.681,0.691 9.19,0.691 4.792,0 8.053,-0.79 10.276,-2.668 1.829,-1.532 2.867,-3.853 2.867,-6.67 0,-4.298 -2.915,-7.214 -6.029,-8.35 v -0.148 c 2.372,-0.89 3.805,-3.212 4.645,-6.423 1.037,-4.15 1.927,-8.004 2.618,-9.289 h -6.274 c -0.494,0.988 -1.285,3.706 -2.224,7.856 -0.938,4.348 -2.52,5.732 -5.978,5.83 H 0 v -13.686 h -6.028 z"
             style="fill:#000000;fill-opacity:1;fill-rule:nonzero;stroke:none"
             id="path206" />
        </g>
        <g
           id="g208"
           transform="translate(854.7726,44.7637)">
          <path
             d="m 0,0 v -19.417 c 0,-6.522 2.717,-9.536 6.818,-9.536 4.397,0 7.016,3.014 7.016,9.536 V 0 h 6.077 v -19.022 c 0,-10.277 -5.287,-14.822 -13.291,-14.822 -7.707,0 -12.697,4.298 -12.697,14.773 l 0,19.071 z"
             style="fill:#000000;fill-opacity:1;fill-rule:nonzero;stroke:none"
             id="path210" />
        </g>
        <g
           id="g212"
           transform="translate(923.8517,12.4512)">
          <path
             d="m 0,0 c -1.433,-0.741 -4.595,-1.482 -8.597,-1.482 -10.573,0 -16.997,6.62 -16.997,16.749 0,10.968 7.61,17.589 17.787,17.589 4.002,0 6.869,-0.84 8.103,-1.482 l -1.334,-4.842 c -1.581,0.692 -3.755,1.284 -6.522,1.284 -6.768,0 -11.66,-4.249 -11.66,-12.253 0,-7.312 4.299,-12.006 11.612,-12.006 2.469,0 5.039,0.494 6.62,1.235 z"
             style="fill:#000000;fill-opacity:1;fill-rule:nonzero;stroke:none"
             id="path214" />
        </g>
        <g
           id="g216"
           transform="translate(953.1066,2.6187)">
          <path
             d="m 0,0 c 1.729,0.346 3.459,1.334 3.459,3.113 0,1.186 -0.84,2.273 -1.581,2.965 l 4.348,0.79 C 7.214,6.176 8.152,4.793 8.152,3.113 8.152,-0.791 4.694,-2.47 0.988,-2.619 Z m 1.631,37.056 h -9.486 v 5.089 H 17.293 V 37.056 H 7.708 V 8.844 H 1.631 Z"
             style="fill:#000000;fill-opacity:1;fill-rule:nonzero;stroke:none"
             id="path218" />
        </g>
        <path
           d="m 998.716,11.463 h -6.077 v 33.301 h 6.077 z"
           style="fill:#000000;fill-opacity:1;fill-rule:nonzero;stroke:none"
           id="path220" />
        <path
           d="m 1030.095,11.463 h -6.077 v 33.301 h 6.077 z"
           style="fill:#000000;fill-opacity:1;fill-rule:nonzero;stroke:none"
           id="path222" />
        <g
           id="g224"
           transform="translate(253.7324,149.1353)">
          <path
             d="M 0,0 -6.705,2.372 V -2.913 L 0,-4.86 Z"
             style="fill:#000000;fill-opacity:1;fill-rule:nonzero;stroke:none"
             id="path226" />
        </g>
        <g
           id="g228"
           transform="translate(253.7324,135.1395)">
          <path
             d="M 0,0 -6.705,2.372 V -2.913 L 0,-4.86 Z"
             style="fill:#000000;fill-opacity:1;fill-rule:nonzero;stroke:none"
             id="path230" />
        </g>
        <g
           id="g232"
           transform="translate(253.7324,176.6684)">
          <path
             d="M 0,0 -6.705,3.652 V -2.913 L 0,-6.071 Z"
             style="fill:#000000;fill-opacity:1;fill-rule:nonzero;stroke:none"
             id="path234" />
        </g>
        <g
           id="g236"
           transform="translate(253.7324,162.7624)">
          <path
             d="M 0,0 -6.705,3.652 V -2.913 L 0,-6.071 Z"
             style="fill:#000000;fill-opacity:1;fill-rule:nonzero;stroke:none"
             id="path238" />
        </g>
        <g
           id="g240"
           transform="translate(247.0277,126.9106)">
          <path
             d="M 0,0 V 4.916 L -146.69,40.549 -211.954,25.744 V 12.591 L -146.69,30.029 0,-2.716 Z"
             style="fill:#000000;fill-opacity:1;fill-rule:nonzero;stroke:none"
             id="path242" />
        </g>
        <g
           id="g244"
           transform="translate(36.0703,221.0089)">
          <path
             d="M 0,0 -20.043,-5.252 V -9.907 L 0,-5.208 Z"
             style="fill:#000000;fill-opacity:1;fill-rule:nonzero;stroke:none"
             id="path246" />
        </g>
        <g
           id="g248"
           transform="translate(36.0703,202.7119)">
          <path
             d="M 0,0 -20.043,-5.252 V -9.907 L 0,-5.208 Z"
             style="fill:#000000;fill-opacity:1;fill-rule:nonzero;stroke:none"
             id="path250" />
        </g>
        <g
           id="g252"
           transform="translate(36.0703,183.5335)">
          <path
             d="M 0,0 -20.043,-5.252 V -9.907 L 0,-5.208 Z"
             style="fill:#000000;fill-opacity:1;fill-rule:nonzero;stroke:none"
             id="path254" />
        </g>
        <g
           id="g256"
           transform="translate(36.0703,164.0702)">
          <path
             d="M 0,0 -20.043,-5.252 V -9.907 L 0,-5.208 Z"
             style="fill:#000000;fill-opacity:1;fill-rule:nonzero;stroke:none"
             id="path258" />
        </g>
        <g
           id="g260"
           transform="translate(247.0274,131.1389)">
          <path
             d="m 0,0 c -0.38,0 -0.687,0.308 -0.687,0.687 v 56.896 c 0,0.38 0.307,0.688 0.687,0.688 0.38,0 0.687,-0.308 0.687,-0.688 V 0.687 C 0.687,0.308 0.38,0 0,0"
             style="fill:#000000;fill-opacity:1;fill-rule:nonzero;stroke:none"
             id="path262" />
        </g>
        <g
           id="g264"
           transform="translate(63.881,150.4392)">
          <path
             d="m 0,0 c -0.376,0 -0.683,0.302 -0.687,0.679 l -0.237,20.534 c -0.005,0.379 0.299,0.69 0.679,0.695 h 0.008 c 0.376,0 0.682,-0.303 0.686,-0.679 L 0.687,0.695 C 0.691,0.315 0.388,0.004 0.008,0 Z"
             style="fill:#000000;fill-opacity:1;fill-rule:nonzero;stroke:none"
             id="path266" />
        </g>
        <g
           id="g268"
           transform="translate(233.5069,134.4236)">
          <path
             d="m 0,0 c -0.38,0 -0.687,0.308 -0.687,0.687 v 61.478 c 0,0.379 0.307,0.687 0.687,0.687 0.38,0 0.687,-0.308 0.687,-0.687 V 0.687 C 0.687,0.308 0.38,0 0,0"
             style="fill:#000000;fill-opacity:1;fill-rule:nonzero;stroke:none"
             id="path270" />
        </g>
        <g
           id="g272"
           transform="translate(214.3331,139.0808)">
          <path
             d="m 0,0 c -0.38,0 -0.687,0.308 -0.687,0.687 v 67.974 c 0,0.38 0.307,0.687 0.687,0.687 0.38,0 0.687,-0.307 0.687,-0.687 V 0.687 C 0.687,0.308 0.38,0 0,0"
             style="fill:#000000;fill-opacity:1;fill-rule:nonzero;stroke:none"
             id="path274" />
        </g>
        <g
           id="g276"
           transform="translate(189.8136,145.0374)">
          <path
             d="m 0,0 c -0.38,0 -0.687,0.308 -0.687,0.687 v 76.282 c 0,0.379 0.307,0.687 0.687,0.687 0.38,0 0.687,-0.308 0.687,-0.687 V 0.687 C 0.687,0.308 0.38,0 0,0"
             style="fill:#000000;fill-opacity:1;fill-rule:nonzero;stroke:none"
             id="path278" />
        </g>
        <g
           id="g280"
           transform="translate(64.0636,201.74)">
          <path
             d="M 0,0 V -6.475 L 35.053,8.381 v 6.591 z m -0.687,-8.199 c -0.132,0 -0.265,0.038 -0.378,0.114 -0.193,0.127 -0.308,0.342 -0.308,0.573 v 7.966 c 0,0.275 0.164,0.523 0.417,0.631 l 36.426,15.56 c 0.21,0.091 0.455,0.069 0.648,-0.059 0.193,-0.127 0.308,-0.342 0.308,-0.573 V 7.926 c 0,-0.276 -0.164,-0.525 -0.418,-0.632 L -0.418,-8.145 c -0.087,-0.036 -0.178,-0.054 -0.269,-0.054"
             style="fill:#000000;fill-opacity:1;fill-rule:nonzero;stroke:none"
             id="path282" />
        </g>
        <g
           id="g284"
           transform="translate(64.2511,180.7815)">
          <path
             d="m 0,0 0.041,-4.811 34.824,9.65 v 7.632 z m -0.638,-6.398 c -0.147,0 -0.293,0.047 -0.413,0.138 -0.171,0.129 -0.272,0.329 -0.273,0.543 l -0.054,6.194 c -0.003,0.292 0.18,0.554 0.455,0.652 L 35.32,14.093 c 0.209,0.075 0.445,0.045 0.627,-0.085 0.183,-0.129 0.291,-0.338 0.291,-0.562 v -9.13 c 0,-0.308 -0.205,-0.579 -0.503,-0.662 L -0.454,-6.374 C -0.515,-6.39 -0.576,-6.398 -0.638,-6.398"
             style="fill:#000000;fill-opacity:1;fill-rule:nonzero;stroke:none"
             id="path286" />
        </g>
        <g
           id="g288"
           transform="translate(214.3331,97.8826)">
          <path
             d="m 0,0 c -0.38,0 -0.687,0.308 -0.687,0.687 v 33.256 c 0,0.38 0.307,0.687 0.687,0.687 0.38,0 0.687,-0.307 0.687,-0.687 V 0.687 C 0.687,0.308 0.38,0 0,0"
             style="fill:#000000;fill-opacity:1;fill-rule:nonzero;stroke:none"
             id="path290" />
        </g>
        <g
           id="g292"
           transform="translate(234.8595,99.2991)">
          <path
             d="m 0,0 c -0.38,0 -0.687,0.308 -0.687,0.687 v 26.924 c 0,0.38 0.307,0.687 0.687,0.687 0.38,0 0.687,-0.307 0.687,-0.687 V 0.687 C 0.687,0.308 0.38,0 0,0"
             style="fill:#000000;fill-opacity:1;fill-rule:nonzero;stroke:none"
             id="path294" />
        </g>
        <g
           id="g296"
           transform="translate(214.3341,114.511)">
          <path
             d="m 0,0 c -0.239,0 -0.471,0.125 -0.598,0.347 -0.188,0.329 -0.073,0.749 0.256,0.937 l 20.527,11.712 c 0.331,0.187 0.75,0.073 0.937,-0.256 0.189,-0.33 0.073,-0.749 -0.256,-0.937 L 0.34,0.09 C 0.232,0.029 0.115,0 0,0"
             style="fill:#000000;fill-opacity:1;fill-rule:nonzero;stroke:none"
             id="path298" />
        </g>
        <g
           id="g300"
           transform="translate(107.9659,137.8645)">
          <path
             d="M 0,0 C -0.318,0 -0.604,0.223 -0.672,0.547 -0.749,0.919 -0.51,1.283 -0.139,1.36 L 38.6,9.397 C 38.967,9.473 39.335,9.236 39.412,8.864 39.489,8.493 39.25,8.129 38.879,8.052 L 0.141,0.014 C 0.094,0.004 0.047,0 0,0"
             style="fill:#000000;fill-opacity:1;fill-rule:nonzero;stroke:none"
             id="path302" />
        </g>
        <g
           id="g304"
           transform="translate(107.9669,90.0027)">
          <path
             d="m 0,0 c -0.38,0 -0.687,0.308 -0.687,0.687 v 64.547 c 0,0.379 0.307,0.687 0.687,0.687 0.38,0 0.687,-0.308 0.687,-0.687 V 0.687 C 0.687,0.308 0.38,0 0,0"
             style="fill:#000000;fill-opacity:1;fill-rule:nonzero;stroke:none"
             id="path306" />
        </g>
        <g
           id="g308"
           transform="translate(92.8194,90.7576)">
          <path
             d="m 0,0 c -0.38,0 -0.687,0.308 -0.687,0.687 v 63.582 c 0,0.379 0.307,0.687 0.687,0.687 0.38,0 0.687,-0.308 0.687,-0.687 V 0.687 C 0.687,0.308 0.38,0 0,0"
             style="fill:#000000;fill-opacity:1;fill-rule:nonzero;stroke:none"
             id="path310" />
        </g>
        <g
           id="g312"
           transform="translate(146.7052,92.3807)">
          <path
             d="m 0,0 c -0.38,0 -0.687,0.308 -0.687,0.687 v 53.521 c 0,0.38 0.307,0.687 0.687,0.687 0.38,0 0.687,-0.307 0.687,-0.687 V 0.687 C 0.687,0.308 0.38,0 0,0"
             style="fill:#000000;fill-opacity:1;fill-rule:nonzero;stroke:none"
             id="path314" />
        </g>
        <g
           id="g316"
           transform="translate(182.712,95.5364)">
          <path
             d="m 0,0 c -0.38,0 -0.687,0.308 -0.687,0.687 v 42.328 c 0,0.38 0.307,0.687 0.687,0.687 0.38,0 0.687,-0.307 0.687,-0.687 V 0.687 C 0.687,0.308 0.38,0 0,0"
             style="fill:#000000;fill-opacity:1;fill-rule:nonzero;stroke:none"
             id="path318" />
        </g>
        <g
           id="g320"
           transform="translate(161.422,220.2908)">
          <path
             d="m 0,0 91.624,-48.552 v 4.521 L 0,5.88 Z m 92.311,-50.38 c -0.111,0 -0.221,0.026 -0.322,0.08 L -1.008,-1.021 c -0.225,0.12 -0.365,0.353 -0.365,0.607 v 7.45 c 0,0.242 0.127,0.467 0.336,0.591 0.209,0.123 0.465,0.128 0.68,0.012 L 92.64,-43.02 c 0.22,-0.12 0.357,-0.351 0.357,-0.603 v -6.07 c 0,-0.242 -0.126,-0.465 -0.332,-0.589 -0.109,-0.065 -0.231,-0.098 -0.354,-0.098"
             style="fill:#000000;fill-opacity:1;fill-rule:nonzero;stroke:none"
             id="path322" />
        </g>
        <g
           id="g324"
           transform="translate(161.4239,197.8308)">
          <path
             d="m 0,0 91.622,-40.089 v 5.216 L 0,7.733 Z m 92.309,-41.827 c -0.094,0 -0.188,0.019 -0.276,0.058 l -92.995,40.69 c -0.25,0.11 -0.411,0.357 -0.411,0.63 v 9.26 c 0,0.234 0.119,0.453 0.317,0.579 0.199,0.126 0.446,0.142 0.66,0.044 l 92.995,-43.246 c 0.242,-0.113 0.396,-0.356 0.396,-0.623 v -6.705 c 0,-0.232 -0.116,-0.448 -0.31,-0.574 -0.114,-0.075 -0.245,-0.113 -0.376,-0.113"
             style="fill:#000000;fill-opacity:1;fill-rule:nonzero;stroke:none"
             id="path326" />
        </g>
        <g
           id="g328"
           transform="translate(161.422,175.8108)">
          <path
             d="m 0,0 91.624,-30.582 v 3.289 L 0,7.063 Z m 92.311,-32.223 c -0.074,0 -0.147,0.012 -0.218,0.035 L -0.904,-1.147 c -0.281,0.094 -0.469,0.356 -0.469,0.652 v 8.549 c 0,0.225 0.11,0.437 0.295,0.565 0.186,0.129 0.422,0.157 0.633,0.078 l 92.997,-34.871 c 0.268,-0.101 0.445,-0.357 0.445,-0.643 v -4.719 c 0,-0.22 -0.105,-0.428 -0.285,-0.557 -0.118,-0.085 -0.259,-0.13 -0.401,-0.13"
             style="fill:#000000;fill-opacity:1;fill-rule:nonzero;stroke:none"
             id="path330" />
        </g>
        <g
           id="g332"
           transform="translate(63.0958,235.3235)">
          <path
             d="m 0,0 c 0.133,0 0.265,-0.039 0.379,-0.114 0.19,-0.126 0.306,-0.339 0.308,-0.567 l 0.606,-69.71 35.263,8.181 V 59.534 L -26.047,12.198 -12.201,-5.027 -0.265,-0.053 C -0.18,-0.018 -0.09,0 0,0 m 0.613,-71.94 c -0.152,0 -0.302,0.05 -0.425,0.147 -0.164,0.129 -0.26,0.325 -0.261,0.534 l -0.605,69.545 -11.47,-4.78 c -0.283,-0.116 -0.61,-0.034 -0.8,0.204 l -14.613,18.179 c -0.116,0.144 -0.168,0.33 -0.146,0.514 0.022,0.184 0.119,0.352 0.268,0.464 l 64.267,48.595 c 0.207,0.159 0.487,0.183 0.72,0.068 0.233,-0.116 0.381,-0.355 0.381,-0.615 V -62.756 c 0,-0.32 -0.22,-0.597 -0.532,-0.669 L 0.769,-71.923 C 0.717,-71.935 0.665,-71.94 0.613,-71.94"
             style="fill:#000000;fill-opacity:1;fill-rule:nonzero;stroke:none"
             id="path334" />
        </g>
        <g
           id="g336"
           transform="translate(150.7569,158.511)">
          <path
             d="m 0,0 c -0.059,0 -0.118,0.008 -0.176,0.023 l -50.419,13.37 c -0.367,0.097 -0.586,0.473 -0.488,0.84 0.098,0.366 0.472,0.585 0.84,0.488 L -0.687,1.58 v 100.799 l -50.124,34.784 c -0.311,0.216 -0.388,0.644 -0.172,0.956 0.216,0.311 0.644,0.39 0.956,0.173 L 0.392,103.303 c 0.184,-0.129 0.295,-0.34 0.295,-0.565 V 0.687 C 0.687,0.474 0.588,0.272 0.419,0.143 0.298,0.049 0.149,0 0,0"
             style="fill:#000000;fill-opacity:1;fill-rule:nonzero;stroke:none"
             id="path338" />
        </g>
        <g
           id="g340"
           transform="translate(253.2589,184.4109)">
          <path
             d="m 0,0 c -0.12,0 -0.239,0.031 -0.346,0.093 l -102.502,59.629 c -0.328,0.191 -0.438,0.611 -0.248,0.939 0.191,0.327 0.609,0.441 0.94,0.248 L -0.354,1.688 1.136,5.606 -102.867,70.911 c -0.321,0.202 -0.418,0.626 -0.217,0.947 0.202,0.321 0.625,0.419 0.947,0.216 L 2.344,6.47 C 2.621,6.296 2.737,5.95 2.62,5.644 L 0.642,0.443 C 0.57,0.254 0.419,0.107 0.229,0.04 0.154,0.013 0.077,0 0,0"
             style="fill:#000000;fill-opacity:1;fill-rule:nonzero;stroke:none"
             id="path342" />
        </g>
        <g
           id="g344"
           transform="translate(160.7354,152.1004)">
          <path
             d="m 0,0 c -0.38,0 -0.687,0.308 -0.687,0.687 v 86.134 c 0,0.379 0.307,0.687 0.687,0.687 0.38,0 0.687,-0.308 0.687,-0.687 V 0.687 C 0.687,0.308 0.38,0 0,0"
             style="fill:#000000;fill-opacity:1;fill-rule:nonzero;stroke:none"
             id="path346" />
        </g>
        <g
           id="g348"
           transform="translate(19.2745,101.9666)">
          <path
             d="M 0,0 25.919,-3.551 26.243,27.203 0.665,33.47 Z M 27.291,-3.739 81.265,-11.132 233.773,0.041 233.847,20.164 81.074,54.267 2.83,34.354 27.099,28.407 c 0.31,-0.075 0.527,-0.355 0.523,-0.674 z m 53.952,-8.771 c -0.031,0 -0.062,0.002 -0.093,0.007 l -54.642,7.485 c -0.003,0 -0.006,10e-4 -0.009,10e-4 l -27.291,3.739 c -0.346,0.047 -0.601,0.345 -0.594,0.694 L 1.53,146.175 c 0.004,0.205 0.099,0.397 0.259,0.524 l 18.932,15.065 c 0.229,0.181 0.546,0.198 0.791,0.046 l 8.898,-5.552 c 0.193,-0.12 0.313,-0.327 0.323,-0.553 0.01,-0.226 -0.091,-0.442 -0.272,-0.579 L 17.482,145.333 V 51.774 l 63.429,14.389 c 0.106,0.023 0.212,0.022 0.316,-0.003 L 233.771,28.781 v 3.836 l -92.488,24.714 c -0.366,0.097 -0.584,0.474 -0.486,0.84 0.099,0.367 0.475,0.586 0.842,0.487 l 92.997,-24.85 c 0.3,-0.08 0.509,-0.353 0.509,-0.664 v -5.238 c 0,-0.211 -0.097,-0.41 -0.263,-0.541 -0.166,-0.13 -0.384,-0.178 -0.587,-0.126 L 81.058,64.787 16.948,50.244 c -0.205,-0.045 -0.417,0.002 -0.581,0.133 -0.163,0.13 -0.258,0.328 -0.258,0.537 v 94.762 c 0,0.215 0.101,0.418 0.273,0.548 l 12.453,9.397 -7.639,4.766 L 2.897,145.825 0.7,35.23 80.895,55.639 c 0.102,0.026 0.212,0.029 0.318,0.005 l 153.473,-34.26 c 0.315,-0.07 0.539,-0.35 0.537,-0.673 L 235.145,-0.6 c -0.001,-0.359 -0.279,-0.656 -0.637,-0.683 L 81.293,-12.508 c -0.017,-0.001 -0.033,-0.002 -0.05,-0.002"
             style="fill:#000000;fill-opacity:1;fill-rule:nonzero;stroke:none"
             id="path350" />
        </g>
        <g
           id="g352"
           transform="translate(63.8663,225.7224)">
          <path
             d="M 0,0 0.164,-7.226 35.25,11.362 v 9.211 z m -0.497,-9.041 c -0.12,0 -0.24,0.032 -0.348,0.095 -0.205,0.12 -0.334,0.339 -0.339,0.577 l -0.199,8.743 c -0.006,0.25 0.124,0.482 0.34,0.608 l 36.633,21.38 c 0.214,0.124 0.476,0.126 0.688,0.003 0.214,-0.123 0.345,-0.35 0.345,-0.596 V 10.948 c 0,-0.254 -0.141,-0.488 -0.365,-0.607 L -0.176,-8.96 c -0.1,-0.054 -0.211,-0.081 -0.321,-0.081"
             style="fill:#000000;fill-opacity:1;fill-rule:nonzero;stroke:none"
             id="path354" />
        </g>
        <g
           id="g356"
           transform="translate(146.7052,123.5076)">
          <path
             d="m 0,0 c -0.272,0 -0.531,0.164 -0.638,0.433 -0.14,0.352 0.032,0.752 0.383,0.892 l 36.007,14.357 c 0.352,0.14 0.753,-0.031 0.893,-0.384 0.14,-0.352 -0.032,-0.752 -0.383,-0.892 L 0.255,0.049 C 0.171,0.016 0.085,0 0,0"
             style="fill:#000000;fill-opacity:1;fill-rule:nonzero;stroke:none"
             id="path358" />
        </g>
        <g
           id="g360"
           transform="translate(182.712,116.7005)">
          <path
             d="m 0,0 c -0.261,0 -0.51,0.149 -0.625,0.402 -0.157,0.345 -0.006,0.752 0.34,0.91 L 31.336,15.75 c 0.347,0.157 0.753,0.006 0.91,-0.339 0.157,-0.345 0.006,-0.753 -0.34,-0.911 L 0.285,0.062 C 0.192,0.02 0.096,0 0,0"
             style="fill:#000000;fill-opacity:1;fill-rule:nonzero;stroke:none"
             id="path362" />
        </g>
        <g
           id="g364"
           transform="translate(46.2091,129.0198)">
          <path
             d="m 0,0 c -0.316,0 -0.601,0.22 -0.671,0.542 -0.08,0.371 0.156,0.736 0.527,0.816 l 46.61,10.061 c 0.371,0.085 0.735,-0.155 0.816,-0.526 0.08,-0.371 -0.156,-0.736 -0.527,-0.816 L 0.146,0.016 C 0.097,0.005 0.048,0 0,0"
             style="fill:#000000;fill-opacity:1;fill-rule:nonzero;stroke:none"
             id="path366" />
        </g>
        <g
           id="g368"
           transform="translate(17.8932,96.5153)">
          <path
             d="M 0,0 V 5.145 L 82.624,-6.371 236.473,4.859 236.551,0.864 82.444,-10.74 Z"
             style="fill:#000000;fill-opacity:1;fill-rule:nonzero;stroke:none"
             id="path370" />
        </g>
        <path
           d="m 66.833,94.928 h -0.687 v 38.935 h 0.687 z"
           style="fill:#000000;fill-opacity:1;fill-rule:nonzero;stroke:none"
           id="path372" />
        <path
           d="m 69.322,93.034 h -0.687 v 40.828 h 0.687 z"
           style="fill:#000000;fill-opacity:1;fill-rule:nonzero;stroke:none"
           id="path374" />
        <g
           id="g376"
           transform="translate(99.8009,88.2566)">
          <path
             d="m 0,0 c -0.38,0 -0.687,0.308 -0.687,0.687 v 66.796 c 0,0.379 0.307,0.687 0.687,0.687 0.38,0 0.687,-0.308 0.687,-0.687 V 0.687 C 0.687,0.308 0.38,0 0,0"
             style="fill:#000000;fill-opacity:1;fill-rule:nonzero;stroke:none"
             id="path378" />
        </g>
      </g>
    </g>
  </g>
</svg>
